<svg xmlns="http://www.w3.org/2000/svg" xmlns:xlink="http://www.w3.org/1999/xlink" viewBox="0 0 941.78 373.09"><defs><style>.cls-1{isolation:isolate;}.cls-2{fill:#5488c7;}.cls-3{fill:#421d0e;}.cls-4{fill:#6fa5d9;}.cls-5{fill:#c88f7f;}.cls-6{fill:#da8f27;}.cls-7{fill:#d3a695;}.cls-23,.cls-35,.cls-36,.cls-37,.cls-38,.cls-39,.cls-40,.cls-41,.cls-43,.cls-44,.cls-45,.cls-46,.cls-47,.cls-48,.cls-49,.cls-50,.cls-51,.cls-52,.cls-53,.cls-54,.cls-55,.cls-56,.cls-57,.cls-58,.cls-59,.cls-60,.cls-61,.cls-62,.cls-63,.cls-64,.cls-65,.cls-66,.cls-67,.cls-68,.cls-69,.cls-70,.cls-71,.cls-72,.cls-8{mix-blend-mode:multiply;}.cls-9{fill:url(#linear-gradient);}.cls-10{fill:#b28d9b;}.cls-11{fill:#d1b6c1;}.cls-12{fill:#bfbfcb;}.cls-13{fill:#cdd5de;}.cls-14{fill:#010101;}.cls-15{fill:#262525;}.cls-16{fill:#faa83d;}.cls-17,.cls-23,.cls-25,.cls-27{fill:#d4dee8;}.cls-18{fill:#510e41;}.cls-19{fill:#732162;}.cls-20{fill:#8c181b;}.cls-21,.cls-26{fill:#fff;}.cls-22,.cls-72{fill:#cb2026;}.cls-24{fill:#9c5830;}.cls-25{opacity:0.61;}.cls-26,.cls-27{opacity:0.7;}.cls-28{fill:#bf792b;}.cls-29{fill:url(#linear-gradient-2);}.cls-30{fill:#1f1b53;}.cls-31{fill:#223f99;}.cls-32{fill:#7a3418;}.cls-33{fill:#abc438;}.cls-34{fill:#7da940;}.cls-35,.cls-36,.cls-37,.cls-38,.cls-39,.cls-40,.cls-41,.cls-43,.cls-44,.cls-45,.cls-46,.cls-47,.cls-48,.cls-49,.cls-50,.cls-51,.cls-52,.cls-53,.cls-54,.cls-55,.cls-56,.cls-57,.cls-58,.cls-59,.cls-60,.cls-61,.cls-62,.cls-63,.cls-64,.cls-65,.cls-66,.cls-67,.cls-68,.cls-69,.cls-70,.cls-71{opacity:0.45;}.cls-35{fill:url(#linear-gradient-3);}.cls-36{fill:url(#linear-gradient-4);}.cls-37{fill:url(#linear-gradient-5);}.cls-38{fill:url(#linear-gradient-6);}.cls-39{fill:url(#linear-gradient-7);}.cls-40{fill:url(#linear-gradient-8);}.cls-41{fill:url(#linear-gradient-9);}.cls-42{fill:#71943d;}.cls-43{fill:url(#linear-gradient-10);}.cls-44{fill:url(#linear-gradient-11);}.cls-45{fill:url(#linear-gradient-12);}.cls-46{fill:url(#linear-gradient-13);}.cls-47{fill:url(#linear-gradient-14);}.cls-48{fill:url(#linear-gradient-15);}.cls-49{fill:url(#linear-gradient-16);}.cls-50{fill:url(#linear-gradient-17);}.cls-51{fill:url(#linear-gradient-18);}.cls-52{fill:url(#linear-gradient-19);}.cls-53{fill:url(#linear-gradient-20);}.cls-54{fill:url(#linear-gradient-21);}.cls-55{fill:url(#linear-gradient-22);}.cls-56{fill:url(#linear-gradient-23);}.cls-57{fill:url(#linear-gradient-24);}.cls-58{fill:url(#linear-gradient-25);}.cls-59{fill:url(#linear-gradient-26);}.cls-60{fill:url(#linear-gradient-27);}.cls-61{fill:url(#linear-gradient-28);}.cls-62{fill:url(#linear-gradient-29);}.cls-63{fill:url(#linear-gradient-30);}.cls-64{fill:url(#linear-gradient-31);}.cls-65{fill:url(#linear-gradient-32);}.cls-66{fill:url(#linear-gradient-33);}.cls-67{fill:url(#linear-gradient-34);}.cls-68{fill:url(#linear-gradient-35);}.cls-69{fill:url(#linear-gradient-36);}.cls-70{fill:url(#linear-gradient-37);}.cls-71{fill:url(#linear-gradient-38);}</style><linearGradient id="linear-gradient" x1="869.17" y1="106.03" x2="858.23" y2="68.14" gradientUnits="userSpaceOnUse"><stop offset="0" stop-color="#fff"/><stop offset="0.59" stop-color="#baaea7"/></linearGradient><linearGradient id="linear-gradient-2" x1="212.08" y1="-151.66" x2="237.56" y2="-194.74" gradientTransform="translate(-18.22 325.65) rotate(-23.94)" gradientUnits="userSpaceOnUse"><stop offset="0" stop-color="#fff"/><stop offset="0.41" stop-color="#baaea7"/></linearGradient><linearGradient id="linear-gradient-3" x1="95.02" y1="320.21" x2="95.98" y2="320.21" gradientTransform="translate(154.25 -193.16) rotate(21.01)" gradientUnits="userSpaceOnUse"><stop offset="0.19" stop-color="#fff"/><stop offset="0.26" stop-color="#f5f5f5"/><stop offset="0.38" stop-color="#dbdbdb"/><stop offset="0.53" stop-color="#b0b0b0"/><stop offset="0.71" stop-color="#747474"/><stop offset="0.9" stop-color="#282828"/><stop offset="1" stop-color="#010101"/></linearGradient><linearGradient id="linear-gradient-4" x1="99.26" y1="310.04" x2="100.2" y2="310.04" xlink:href="#linear-gradient-3"/><linearGradient id="linear-gradient-5" x1="104.83" y1="319.42" x2="105.78" y2="319.42" xlink:href="#linear-gradient-3"/><linearGradient id="linear-gradient-6" x1="99.35" y1="320.49" x2="100.3" y2="320.49" xlink:href="#linear-gradient-3"/><linearGradient id="linear-gradient-7" x1="91.52" y1="320.2" x2="92.46" y2="320.2" xlink:href="#linear-gradient-3"/><linearGradient id="linear-gradient-8" x1="88.75" y1="310.51" x2="89.7" y2="310.51" xlink:href="#linear-gradient-3"/><linearGradient id="linear-gradient-9" x1="93.77" y1="309.53" x2="94.72" y2="309.53" xlink:href="#linear-gradient-3"/><linearGradient id="linear-gradient-10" x1="107.73" y1="315.26" x2="108.48" y2="315.26" xlink:href="#linear-gradient-3"/><linearGradient id="linear-gradient-11" x1="161.46" y1="119.97" x2="162.14" y2="119.97" gradientTransform="matrix(1, -0.04, 0.04, 1, -11.15, 21.55)" xlink:href="#linear-gradient-3"/><linearGradient id="linear-gradient-12" x1="165.38" y1="126.05" x2="166.05" y2="126.05" gradientTransform="matrix(1, -0.04, 0.04, 1, -11.15, 21.55)" xlink:href="#linear-gradient-3"/><linearGradient id="linear-gradient-13" x1="159.76" y1="128.16" x2="160.44" y2="128.16" gradientTransform="matrix(1, -0.04, 0.04, 1, -11.15, 21.55)" xlink:href="#linear-gradient-3"/><linearGradient id="linear-gradient-14" x1="160.42" y1="123.42" x2="161.1" y2="123.42" gradientTransform="matrix(1, -0.04, 0.04, 1, -11.15, 21.55)" xlink:href="#linear-gradient-3"/><linearGradient id="linear-gradient-15" x1="162.2" y1="117.11" x2="162.89" y2="117.11" gradientTransform="matrix(1, -0.04, 0.04, 1, -11.15, 21.55)" xlink:href="#linear-gradient-3"/><linearGradient id="linear-gradient-16" x1="167.38" y1="117.36" x2="168.05" y2="117.36" gradientTransform="matrix(1, -0.04, 0.04, 1, -11.15, 21.55)" xlink:href="#linear-gradient-3"/><linearGradient id="linear-gradient-17" x1="166.78" y1="121.71" x2="167.46" y2="121.71" gradientTransform="matrix(1, -0.04, 0.04, 1, -11.15, 21.55)" xlink:href="#linear-gradient-3"/><linearGradient id="linear-gradient-18" x1="161.3" y1="131.51" x2="161.64" y2="131.51" gradientTransform="matrix(1, -0.04, 0.04, 1, -11.15, 21.55)" xlink:href="#linear-gradient-3"/><linearGradient id="linear-gradient-19" x1="150.75" y1="119.74" x2="151.53" y2="119.74" gradientTransform="matrix(1, -0.04, 0.04, 1, -11.15, 21.55)" xlink:href="#linear-gradient-3"/><linearGradient id="linear-gradient-20" x1="157.72" y1="116.72" x2="158.5" y2="116.72" gradientTransform="matrix(1, -0.04, 0.04, 1, -11.15, 21.55)" xlink:href="#linear-gradient-3"/><linearGradient id="linear-gradient-21" x1="156.92" y1="125.84" x2="157.7" y2="125.84" gradientTransform="matrix(1, -0.04, 0.04, 1, -11.15, 21.55)" xlink:href="#linear-gradient-3"/><linearGradient id="linear-gradient-22" x1="153.2" y1="122.79" x2="153.98" y2="122.79" gradientTransform="matrix(1, -0.04, 0.04, 1, -11.15, 21.55)" xlink:href="#linear-gradient-3"/><linearGradient id="linear-gradient-23" x1="148.67" y1="117.38" x2="149.45" y2="117.38" gradientTransform="matrix(1, -0.04, 0.04, 1, -11.15, 21.55)" xlink:href="#linear-gradient-3"/><linearGradient id="linear-gradient-24" x1="151.26" y1="109.96" x2="152.05" y2="109.96" gradientTransform="matrix(1, -0.04, 0.04, 1, -11.15, 21.55)" xlink:href="#linear-gradient-3"/><linearGradient id="linear-gradient-25" x1="154.68" y1="112.75" x2="155.46" y2="112.75" gradientTransform="matrix(1, -0.04, 0.04, 1, -11.15, 21.55)" xlink:href="#linear-gradient-3"/><linearGradient id="linear-gradient-26" x1="160.54" y1="125.32" x2="161.05" y2="125.32" gradientTransform="matrix(1, -0.04, 0.04, 1, -11.15, 21.55)" xlink:href="#linear-gradient-3"/><linearGradient id="linear-gradient-27" x1="147.22" y1="129.08" x2="148.05" y2="129.08" gradientTransform="matrix(1, -0.04, 0.04, 1, -11.15, 21.55)" xlink:href="#linear-gradient-3"/><linearGradient id="linear-gradient-28" x1="155.85" y1="127.88" x2="156.69" y2="127.88" gradientTransform="matrix(1, -0.04, 0.04, 1, -11.15, 21.55)" xlink:href="#linear-gradient-3"/><linearGradient id="linear-gradient-29" x1="151.01" y1="129.18" x2="151.84" y2="129.18" gradientTransform="matrix(1, -0.04, 0.04, 1, -11.15, 21.55)" xlink:href="#linear-gradient-3"/><linearGradient id="linear-gradient-30" x1="144.14" y1="129.2" x2="144.98" y2="129.2" gradientTransform="matrix(1, -0.04, 0.04, 1, -11.15, 21.55)" xlink:href="#linear-gradient-3"/><linearGradient id="linear-gradient-31" x1="142.04" y1="119.49" x2="142.87" y2="119.49" gradientTransform="matrix(1, -0.04, 0.04, 1, -11.15, 21.55)" xlink:href="#linear-gradient-3"/><linearGradient id="linear-gradient-32" x1="149.98" y1="124.89" x2="150.82" y2="124.89" gradientTransform="matrix(1, -0.04, 0.04, 1, -11.15, 21.55)" xlink:href="#linear-gradient-3"/><linearGradient id="linear-gradient-33" x1="142.97" y1="126.48" x2="143.81" y2="126.48" gradientTransform="matrix(1, -0.04, 0.04, 1, -11.15, 21.55)" xlink:href="#linear-gradient-3"/><linearGradient id="linear-gradient-34" x1="146.53" y1="127.12" x2="147.37" y2="127.12" gradientTransform="matrix(1, -0.04, 0.04, 1, -11.15, 21.55)" xlink:href="#linear-gradient-3"/><linearGradient id="linear-gradient-35" x1="145" y1="124.33" x2="145.38" y2="124.33" gradientTransform="matrix(1, -0.04, 0.04, 1, -11.15, 21.55)" xlink:href="#linear-gradient-3"/><linearGradient id="linear-gradient-36" x1="154.11" y1="126.57" x2="154.78" y2="126.57" gradientTransform="matrix(1, -0.04, 0.04, 1, -11.15, 21.55)" xlink:href="#linear-gradient-3"/><linearGradient id="linear-gradient-37" x1="155.78" y1="123.95" x2="156.19" y2="123.95" gradientTransform="matrix(1, -0.04, 0.04, 1, -11.15, 21.55)" xlink:href="#linear-gradient-3"/><linearGradient id="linear-gradient-38" x1="158.54" y1="123.55" x2="159.2" y2="123.55" gradientTransform="matrix(1, -0.04, 0.04, 1, -11.15, 21.55)" xlink:href="#linear-gradient-3"/></defs><g class="cls-1"><g id="Layer_1" data-name="Layer 1"><path class="cls-2" d="M927,230c.77-4.06.57-12.36,3-14.14a4.88,4.88,0,0,1,2-.66c2.09-.4,5.12.09,5.63,1.07s-2.08,4.88-2.08,4.88-3.36-1.85-4-1.34-.14,9.6-.44,10.1S927,230,927,230Z" transform="translate(-16.92 -27.99)"/><path class="cls-2" d="M950.73,232.58a3.48,3.48,0,0,0-2.22-2.8s-.16,0-.16,0c-.85-.4-5.42-1.06-12.05-.88-5.92.18-10.81.75-11.77,1.35a3.82,3.82,0,0,0-2.94,3.22L917.8,290.3c-.22,3.4,1.75,6.17,4.5,6.55,3,1.15,9.12,1.81,16.2,1.6,9.4-.26,17.06-2,17.83-3.9a6.32,6.32,0,0,0,2.29-6.11Z" transform="translate(-16.92 -27.99)"/><path class="cls-3" d="M945.51,230.64c0,.48-4.21,1-9.43,1.13s-9.48-.11-9.49-.59,4.2-1,9.43-1.14S945.49,230.16,945.51,230.64Z" transform="translate(-16.92 -27.99)"/><path class="cls-4" d="M949,233a3.52,3.52,0,0,0-.42-1.19,14.19,14.19,0,0,1-5.87,2.29,85.41,85.41,0,0,1-9.43,1c.31,2.58-.47,60.3-.47,60.3s15.62,1.64,23.79-4.2a5.31,5.31,0,0,0,.28-2.37Z" transform="translate(-16.92 -27.99)"/><path class="cls-4" d="M932.83,233.49c.49.68,8.36.66,8.95-.68-4.87-9.25-2.51-16.86-4.15-18.4s-3.66.5-3.66.5.34,5.47.31,9.52A28,28,0,0,1,932.83,233.49Z" transform="translate(-16.92 -27.99)"/><path class="cls-5" d="M938.33,219.29c-1.61-4.38-4.8-.9-4.8-.9s-.26.72.85,2.89-.2,5.1-.53,4.27c-1.35-3.43-6.34-5.17-6.11-7.46.32-3.13,1.12-7.47-1-11.64,0,0,.21-6.06-.17-6.86s8.94-1.05,8.94-1.05-1.79,1.6.24,7,5.18,8.28,5.66,10.29c.84,3.57,1.27,3.64.47,4.93-1.4,2.29-1.8,3.68-3.08,4.77Z" transform="translate(-16.92 -27.99)"/><path class="cls-2" d="M948.1,254.42c-4.3-2.1-7.65-3.09-4.46,7.65,1.22,4.12,3.72,10,4.35,18,.67,8.38-9,8.11-11.16,5.82-4-4.18-1.82-10.66-.79-22.69,2.55-30.15,11.42-24.83,11.42-24.43C947.51,246.4,948.1,254.42,948.1,254.42Z" transform="translate(-16.92 -27.99)"/><path class="cls-5" d="M934.07,226.25c-3.41-1.38-5.1-1.89-3.94-2.39s1.92-.59,2.35-.3-4.05,1.5-4.05.3,1.59-3,3-2.28-3.4,1.09-3.4.29a1.88,1.88,0,0,1,2.44-2,6.62,6.62,0,0,1,4.36,3.48C935.13,224.46,934.07,226.25,934.07,226.25Z" transform="translate(-16.92 -27.99)"/><path class="cls-6" d="M859.48,91c-17.82,1.09-44.42-5.71-39.37-18.73s44-18.89,62.71-20.52c13.72-1.2,28.82.29,34.88,5.66,2.38,2.12,2.9,5.1,2.55,9C918.33,87.25,875.6,90,859.48,91Z" transform="translate(-16.92 -27.99)"/><path class="cls-7" d="M848.58,102.38a14.24,14.24,0,0,0,9.36-7.91c2.09-3.37,1.65-9.64,2.29-15.08l11.53-.23h0l.07,0h0l12.73,2.37C881,97.87,892.33,101,892.33,101l-6.71,34.54Z" transform="translate(-16.92 -27.99)"/><g class="cls-8"><path class="cls-9" d="M883.45,83.7c2.75.91-2.5,4.13,4.25,15.48-2.77,3-19.13,23.49-23.62,22.93-3.72-.45-14.86-15.74-16.92-18.4,3.76-1,6.23-3.95,9.86-7.54,3.5-5.41,2.7-16.91-.1-17.58Z" transform="translate(-16.92 -27.99)"/></g><path class="cls-10" d="M834.14,105.23S845,101,854.55,96.67c3.42-1.55,8.27,19.09,24.22,22.37,0,0,14.65,4.17,16.07,19.28,1.48,15.76-1,72.61-1,72.61s-16.1,11.78-51.47,2.38c-6.7-26.66-4-41.82-4-56.65s-2.55-19.61-1-25.83Z" transform="translate(-16.92 -27.99)"/><path class="cls-11" d="M888,98c-.14-2.08,3.49.06,8.29,1.46,5.81,1.72,13.69,3.31,14.47,6.24,1.43,5.38-.35,28.32-1.08,31.68A69.51,69.51,0,0,0,907.64,160c.73,12.74,13.46,23.44,6.65,58.07-7.16,4.69-36.39-8-40-8s3.33-91.84,3.33-91.84S888.5,105.9,888,98Z" transform="translate(-16.92 -27.99)"/><path class="cls-12" d="M847.19,58.37c-1,1.27-.4.08-1.43-1-3.53,3.6-.11,10.15-1,11,.34,5.32-5.58,4.53-5.58,4.53s1,1.59,4.46,3.58c-.7,1.7-3,2.9-5.27.45-.44-.5-.81,8.28,10.11,14.87a11.57,11.57,0,0,0,10.58.14c.74-.46.24-2,.74-2.82.94-1.62.84-4.81.9-7.61C860.88,73.39,847.19,58.37,847.19,58.37Z" transform="translate(-16.92 -27.99)"/><path class="cls-7" d="M853.06,72.81c1.36,7,4.71,15,9,18.64,2.59,2.16,6.59,4.14,8.78,4,2.71-.13,7.48-2.88,10.41-5.32,4.06-3.39,6.36-8.82,7.36-17.3,1.4-12-2.42-23.64-18.33-22.9C855.35,50.69,850.78,61,853.06,72.81Z" transform="translate(-16.92 -27.99)"/><path class="cls-12" d="M884.2,87.25a12.35,12.35,0,0,0,.16,4c10.41,4.56,19.34-10,16.91-8.8-3.29,1.59-6.43-1.31-4.15-1.49,5-.38,4.15-8.65,1.46-10.31,2.57-2.29,3.13-4.77,1.2-5.43-5.75-2-3.61-5.45-3.61-5.45s-5.62-7.21-18.83-8.21c-2.66-.2-8.09-6.66-10.21-2.84s6.7,11,6.7,11,8.41-3.54,11.4,11C887.07,79.79,884.75,82.18,884.2,87.25Z" transform="translate(-16.92 -27.99)"/><path class="cls-13" d="M876.36,43.52c.4-3,.28.29-1.15-1.55a8.24,8.24,0,0,0-4.85-2.68c-1.57,0-3.09-.52-5.65.22A30.79,30.79,0,0,0,860,41.35s-5.26-.14-6.09,2.7a8.44,8.44,0,0,1-5.09,5.32A3.58,3.58,0,0,0,846,53.24c0,2.26-2.3,3.59-1.22,5.87s-1.64,5,2.39,13.63c.69,1.45,5.3,3.83,5.3,3.83s-4.42-9.9-3.69-7.3c.59,2.12,5.12,6.78,4.26,4.4-2.55-7,10.07-18.45,20.78-13.88,1.77.76-2.7-4.63-.46-6.25s-.1-1.66-.42-5.32S876.36,43.52,876.36,43.52Z" transform="translate(-16.92 -27.99)"/><path class="cls-13" d="M885.67,72.27c1.42-1.56.2-3.12,4.83-1.55s5.76.67,6.14-1.3a4.16,4.16,0,0,0-1-3.61c-.86-1,2.58,3.06-1,3.26s-5.2-1.78-6.94-.27-3,.25-3,.75A12,12,0,0,0,885.67,72.27Z" transform="translate(-16.92 -27.99)"/><path class="cls-13" d="M885.57,72.26c1.33-1.33,2.46.16,4.91.56s7.09-1.41,6.66-3.75c0,0,.64,4.26-2.28,4.81s-2.68.58-4,.22-3-.64-3.68,0-1.25.32-1.25.32Z" transform="translate(-16.92 -27.99)"/><path class="cls-13" d="M885.32,75.54c1.74-.47,4.4.71,6.77-.15s2.59-2.33,2.59-2.33-1.48,4.84-3.6,4.59A25,25,0,0,1,885.32,75.54Z" transform="translate(-16.92 -27.99)"/><path class="cls-13" d="M881.45,62.37c1.2-2.36-1.05-3.59,5.71-3.87s7.77-1.76,7.46-4.13a4.55,4.55,0,0,0-2.75-3.6c-1.51-.72,4.59,2.3,0,4.1s-7.5.26-9.19,2.74-3.78,1.57-3.65,2.15S881.45,62.37,881.45,62.37Z" transform="translate(-16.92 -27.99)"/><path class="cls-13" d="M881.9,62.53c1.22-2.07,3.29-.91,6.65-1.53s7.86-2.61,6.33-5.07a4.43,4.43,0,0,1-1.55,5.73c-1.31.89-1.88.44-3.73.62s-4.12.57-4.83,1.6-1.47.9-1.47.9Z" transform="translate(-16.92 -27.99)"/><path class="cls-13" d="M883.5,66.51c2.18-1.25,5-1.07,7.88-3S894,59.91,894,59.91s-.21,5.66-3.11,6.34A27.73,27.73,0,0,1,883.5,66.51Z" transform="translate(-16.92 -27.99)"/><path class="cls-12" d="M872.45,60.87c-1.48-2.53-6.63-1.8-9-.89s-6.91,3.26-3.71,7.93c-2.77-4.44-3.75-6.82-2.29-8.72s1.23-3.61,5.07-3.55,6.27-1.38,8.26,1.62S872.45,60.87,872.45,60.87Z" transform="translate(-16.92 -27.99)"/><path class="cls-12" d="M872.11,59.92c-2-2.57-3-4.36-7.66-4.31a11.34,11.34,0,0,0-8.75,4.64c-2.15,3.32-.34,7.86-.34,7.86s-4.6-7.17-3-9.37,9.15-7.23,16.37-6C874.15,53.7,872.11,59.92,872.11,59.92Z" transform="translate(-16.92 -27.99)"/><path class="cls-14" d="M879,379.49c0,.89.32,4.77-1.12,5.52s-8.14,2.54-10.84,2.24-4.16-1-2.24-3.88S879,379.49,879,379.49Z" transform="translate(-16.92 -27.99)"/><path class="cls-14" d="M846.23,305.46c10.85,5.37,29.36,1,32.76-1.4,0,4.34,1.4,20.12.42,31.85-1.36,16.24-5.17,29.06-4.67,31.84,4.25,8.75,5.74,12.33,2.76,14.13-4.17,2.51-3.19.59-10,3-3.38,1.18-5.45,4.79-8.72,7.77s-5.28,4.17-11.27,4.17c-5,0-11.65-.57-13.39-2.78-.87-1.1-.55-2.28-.67-3.47a5.23,5.23,0,0,1,2.79-5.29c8.53-4.5,18.46-12,18.72-16.12C855.6,358.79,846.23,305.46,846.23,305.46Z" transform="translate(-16.92 -27.99)"/><path class="cls-15" d="M838.8,385.06c.21,3.59,7.23,3.59,10.63,2.79,1.66-.39,4.89-3.58,4-5.17s-6.82-1.2-1.71-6.37C842.52,384.66,838.8,385.06,838.8,385.06Z" transform="translate(-16.92 -27.99)"/><path class="cls-15" d="M867,312c2.13,2.78,6.07,19.4,4.15,35.22,0,0,.11,20.2,1,21.79s1.38,6.67-1.18,9.85-8.5,4-8.5,7.17a65.08,65.08,0,0,1,16.16-6.77c2.62-.69-1.92-9.75-1.92-11.34s6.59-35.23,2.77-59.11A30.83,30.83,0,0,1,867,312Z" transform="translate(-16.92 -27.99)"/><path class="cls-14" d="M886.27,384.62c0,.89-.32,4.76,1.12,5.52s5.4,2.19,8.1,1.88,4.15-1,2.24-3.88S886.27,384.62,886.27,384.62Z" transform="translate(-16.92 -27.99)"/><path class="cls-14" d="M916.29,310.23c-10.85,5.37-29.36,1-32.75-1.38,0,4.32-1.41,20.1-.43,31.83,1.36,16.25,5.17,29.07,4.68,31.84-3,9.46-3,12.69,0,14.48,4.19,2.51.47.25,7.27,2.63,3.38,1.19,2.73,4.3,6,7.27a17.09,17.09,0,0,0,11.28,4.18c5,0,12.56-1,14.31-3.23.87-1.1.65-1.62.77-2.82a5.21,5.21,0,0,0-2.79-5.29c-8.53-4.5-16.78-11.68-17-15.83C906.93,363.57,916.29,310.23,916.29,310.23Z" transform="translate(-16.92 -27.99)"/><path class="cls-15" d="M923.2,388.89c-.22,3.58-7.69,4.09-11.09,3.28-1.65-.38-6.67-3.48-5.81-5.07s7.46-4,2.36-9.21C918,387.82,923.2,388.89,923.2,388.89Z" transform="translate(-16.92 -27.99)"/><path class="cls-15" d="M904.93,314.81c1,6-.11,51.94-3.29,58.51,2-1,4.64-1.59,5.92.59.64-9.55,6.42-52.43,8.22-61C911.84,315,904.93,314.81,904.93,314.81Z" transform="translate(-16.92 -27.99)"/><path class="cls-16" d="M844.12,58.1c2.69-8.59,2.58-17.25,14.45-19.51,7.51-1.42,14.49-3.11,19.14.6,8.51,6.77,11.48,13.17,9.79,13C868.73,50.78,844.12,58.1,844.12,58.1Z" transform="translate(-16.92 -27.99)"/><path class="cls-17" d="M844.56,57.13c2.77-1,19-6.6,43.23-6.82a4.79,4.79,0,0,1-1-1.35s-26.79-2.41-42.23,7.8C844.06,57.22,844.56,57.13,844.56,57.13Z" transform="translate(-16.92 -27.99)"/><path class="cls-6" d="M843.9,70c3.93-6.82,27.65-18.11,43.6-9.55a13.93,13.93,0,0,0,14-.39s-4.88-8-11.69-8S842,58.49,839,60.48,843.9,70,843.9,70Z" transform="translate(-16.92 -27.99)"/><path class="cls-16" d="M828,64.11a27.33,27.33,0,0,0-5.51,4.18c6.67-3.87,29.25-11,43.07-13.29,23.92-3.87,39.86-1,49.76,1.35-8.2-7.47-35.65-6.47-48.17-4.63S837.72,59.16,831.89,62C831,62.48,829.09,63.46,828,64.11Z" transform="translate(-16.92 -27.99)"/><path class="cls-18" d="M845.18,99.48s1.7,27.66-.21,35.43,7.65,1.39,7.65,1.39-1.7-38-3.62-38A8.43,8.43,0,0,0,845.18,99.48Z" transform="translate(-16.92 -27.99)"/><path class="cls-18" d="M893.66,98.29l3.41,1s4,22.48,3.18,25.87l-5.09,2.19s.42-11.55-.22-18.71S893.66,98.29,893.66,98.29Z" transform="translate(-16.92 -27.99)"/><path class="cls-10" d="M875.9,118.29c3.82-2.23,13.88-17.53,9.42-24.25-.57-1.41.16-1.7,1.43-.83,6.38,4.49,7.23,3.37,16.59,7.33,0,0-4.47-1.35-12,5.52a83.69,83.69,0,0,0-14,17.31Z" transform="translate(-16.92 -27.99)"/><path class="cls-11" d="M877.34,123.37c-9.33-6.05-26-20-32.37-17.62C840.26,107.51,859.05,92,859.05,92s-2.93,6.68,1.87,12c3.93,4.35,15.94,13.47,15.94,15.48A18.29,18.29,0,0,0,877.34,123.37Z" transform="translate(-16.92 -27.99)"/><path class="cls-18" d="M843.05,174.41c4.8-12.7,4.71-27.18,5.74-37A35.32,35.32,0,0,1,852,125.76c8.52,2.38,46.16.2,48.71-2.19,2.66,6.07,3.73,9.85,4.25,14.32,1.51,13,1.57,28,9.26,42.8,1.38,2.65,5.16,11.53,6.37,14,8,16.42,4.36,29.15,4.36,36.12,0,9.59-8.08,70.86-8.08,70.86s-32,5.07-32.8-2.06c-3.35-30-1.44-55.66-4-55.66-5.1,0-1.75,26.11-2.71,42.68-1,18.05-6.38,15.22-6.38,15.22l-27.71-.59s-9.47-48.43-10.42-54.34c-1.92-12.1-4.17-28.13-4.25-35.41,0-3.11,3.29-3,3.62-5.78.69-5.74.22-6.72,2.55-13.13C835.71,190,841.79,177.72,843.05,174.41Z" transform="translate(-16.92 -27.99)"/><path class="cls-19" d="M860.92,148.14c14.35-6,35.93-4.27,39.54-1.69s3.29,2.89-.63,2c-15.74-3.58-36.26,2-39.87,3.59S860.92,148.14,860.92,148.14Z" transform="translate(-16.92 -27.99)"/><path class="cls-19" d="M849.43,187.85c11.06,4.77,31.59,5.07,61.24-2.7,2.55,6,2.35,3.49,2.35,3.49s-15.11,8.46-36.58,8c-18.19-.42-28.93-4.57-28.93-4.57Z" transform="translate(-16.92 -27.99)"/><path class="cls-19" d="M855.18,185.85c-.43,3.19-2.14,13.53-2.14,13.53l5.11.4,2.54-13.13Z" transform="translate(-16.92 -27.99)"/><path class="cls-19" d="M899.62,183.86c0,1.2,3.61,11.94,3.61,11.94l5.11-2.39L903,181.88Z" transform="translate(-16.92 -27.99)"/><path class="cls-19" d="M845.39,193.22c-3,5.57-14,15.12-15.74,15.92s-1.28,4.18-1.28,4.18,12.28-9.93,14.68-13.14C846,196.2,845.39,193.22,845.39,193.22Z" transform="translate(-16.92 -27.99)"/><path class="cls-19" d="M925.78,229.24c0-5.31,1.91-15.53,1.06-26.67-.12-1.56-3.75-1.37-4.2-2.93-.55-1.86-1.61-5.75-2.39-7.61-1.06-2.55-3.84-10.28-5.22-12.94-7.68-14.82-8.7-28.54-10.21-41.5-.51-4.47-1.48-8-4.14-14-.45.42-1.68.81-4,1.2.64,1.74,3.72,5.8,4.26,13.22a164,164,0,0,1,.21,18c.84,10.35,3.82,16.62,6.37,26.17s7.24,11.45,7,38.71c-.07,8.8-3.4,53.73-6,68.86-1.33,7.95-8.81,10.27-8.93,13.33,5.44,2,17.22-1.38,17.22-1.38S925.76,238.82,925.78,229.24Z" transform="translate(-16.92 -27.99)"/><path class="cls-18" d="M910.36,194.11c2.86,2.69,17.11,7.76,17.11,7.76l-.32,3.44s-10.83-5.76-12.48-6.87A20.89,20.89,0,0,1,910.36,194.11Z" transform="translate(-16.92 -27.99)"/><path class="cls-18" d="M899,301c-9.68-2.42-14.82-5.52-14.82-5.52-2.13,4.78-2.66,6.87-2.24,9.26s-3,6.56,2.13,6.51c6.2-.07,8.35,2.53,13,3.34s10-.9,10-.9,9.3.09,12.28-2.69-.54-18-.8-16C918.23,298.2,906.2,302.77,899,301Z" transform="translate(-16.92 -27.99)"/><path class="cls-19" d="M896.64,302.1c8,2.39,15.55.37,22-3.81,1.84-1.19,0,4.7-1.27,5.3s-18.11,1.42-17.55,1.87c1.75,1.4,10.2,1.56,14.76-.89,2.22-1.22,8,5.66-2.65,6.86-12.09,1.35-10.52-.6-13.07-2.09S896.64,302.1,896.64,302.1Z" transform="translate(-16.92 -27.99)"/><path class="cls-18" d="M841.29,288.89c-3,4-.79,14-.79,14l3.61,4.72s12.18,2.44,23.34,1.25,12.33-3.54,12.76-6.72a16.36,16.36,0,0,0-1.91-10c-1.7-2.78-.47,6.12-23.77,2.23C848.68,293.44,841.29,288.89,841.29,288.89Z" transform="translate(-16.92 -27.99)"/><path class="cls-19" d="M872.87,294.4c-6,1.21-11.53,3.24-13.87,2.85,1.06,2.79,11.14,0,9.57,1.34s-6.69,2.34-2.23,2.54,4.78,0,7.33-.6c-1.91,1.59-12.49,3.88-15.47,3.88.43,1.19,14.09,1.89,17.7-.89s3.94-8.22,1.6-8.22A14.5,14.5,0,0,1,872.87,294.4Z" transform="translate(-16.92 -27.99)"/><path class="cls-10" d="M836.67,104.46c-12.09.09-21.83,30.13-24.45,62.29,0,0,12.75,14,41,19.76.69.21-.49-5.32.19-8.83a11.32,11.32,0,0,1,5.87-8.13l-24.92-10.76c1-3.65,3.19-11.54,6.1-16C844.78,136.13,836.67,104.46,836.67,104.46Z" transform="translate(-16.92 -27.99)"/><path class="cls-20" d="M889.4,136.67c1.08-.5,2.36,2.92,2,3.51-.57.84-3.44,1.89-3.62-.2A3.27,3.27,0,0,1,889.4,136.67Z" transform="translate(-16.92 -27.99)"/><path class="cls-21" d="M889.57,134.08c-1.6-2.46-4.94-1.91-4.94-1.91-2.54.19-5.25,1.07-6.18,5.33s-3.33,12.71-5.22,13.15-24.5-1-29-1.24c0,0-4.69,1.24.84,10.13s29.22,17.27,39,12.09,9.3-11.75,6.8-18.75-6.64-12.9-4.49-13.95,3.65-2.34,3.61-4.17C890,134.55,889.68,134.24,889.57,134.08Z" transform="translate(-16.92 -27.99)"/><path class="cls-22" d="M888,136.59c-.12.23-1.15.55-2,1.44-1.71,1.86-1.8,4.53,1.68,4.44,5.06-.13.83-5.33.83-5.33Z" transform="translate(-16.92 -27.99)"/><path class="cls-17" d="M889.18,136.69a3.67,3.67,0,0,0,.13-1.88c-1.72-.28-3.92-2.29-5.23-1.39s-2.9,1.17-1.48,2.86,2.88,2.09,4.36,1.09C888,136.7,889,137.09,889.18,136.69Z" transform="translate(-16.92 -27.99)"/><path class="cls-23" d="M888.61,137a8.92,8.92,0,0,1,.88-1.44c-2.6-3-4.91-3-6.2-2.07s-2.9,1.17-1.49,2.87,2.88,2.09,4.36,1.08C887.15,136.76,888.43,137.4,888.61,137Z" transform="translate(-16.92 -27.99)"/><path class="cls-22" d="M888.08,134.29c.29.17,1.3.92,1.62.86s.1-.75.1-.75c1.87-1.56.26-2.76-.07-2.84a4.8,4.8,0,0,0-.84-.09s-.08-1.12-.5-1.09-.65.69-.65.69-.56-2.33-1.08-1.84c-.35.33.18,1.28-.13,1.41s-1.28-1.12-1.81-1.08.2,1.08-.21,1.2-.41-1-1.35-.79-1.2.6-1.28.91-1.68,0-2,.14,2.18,1.61,2.18,1.61,3.41-.71,4.63,0C887.24,133,887.55,134,888.08,134.29Z" transform="translate(-16.92 -27.99)"/><path class="cls-6" d="M888.52,137.44a10.28,10.28,0,0,1,3.16-.52c.31.21-1.61-1.08-2.16-1s-1.87.24-1.89.46S888.52,137.44,888.52,137.44Z" transform="translate(-16.92 -27.99)"/><path class="cls-16" d="M890,134.46c1.42.71,2.51,2.21,2.46,2.74-.55,0-3.12-1-4.06-.83s-1.48.51-1.42.2,1.53-.85,1.84-.87.11-.76.39-1.11A.69.69,0,0,1,890,134.46Z" transform="translate(-16.92 -27.99)"/><path class="cls-24" d="M886.62,134.65c0,.46-.55.81-1.23.8s-1.18-.39-1.17-.84.56-.81,1.22-.8S886.62,134.2,886.62,134.65Z" transform="translate(-16.92 -27.99)"/><path class="cls-3" d="M886.05,134.56a.62.62,0,0,1-.64.57.61.61,0,0,1-.62-.58.6.6,0,0,1,.65-.56A.59.59,0,0,1,886.05,134.56Z" transform="translate(-16.92 -27.99)"/><path class="cls-25" d="M885.55,134.4a.22.22,0,0,1-.21.24.24.24,0,0,1-.26-.21.23.23,0,0,1,.22-.24A.22.22,0,0,1,885.55,134.4Z" transform="translate(-16.92 -27.99)"/><path class="cls-26" d="M859.64,151.41c-4.85-3.24-2.54-24.77-4.49-27.72-.17-.25-5.69-1.79-4.38,6.6,1.39,8.8.23,8.06.23,8.06s-.85-15.1-4.17-14.07.2,12.36.2,12.36-2.6-11-5.08-10,2.8,13.38,2.8,13.38-3.62-11.72-6.83-9.1,3.68,12.41,3.68,12.41-3.81-7.41-6.06-7.64c-3-.32.17,11.16,5.54,14.36s-4.06-8.08-7.92-8.21,1.9,7.64,6.09,9.35c-4.47-2.49-9-6.89-7.41-2.62s8.57,11.71,20.23,13.28S859.64,151.41,859.64,151.41Z" transform="translate(-16.92 -27.99)"/><path class="cls-21" d="M860.05,152.43c-4.86-3.25-2.56-24.76-4.51-27.72-.15-.25-5.68-1.79-4.35,6.6,1.38,8.81.22,8.06.22,8.06s-.85-15.1-4.17-14.06.2,12.36.2,12.36-2.61-11-5.09-10,2.8,13.38,2.8,13.38-3.62-11.72-6.82-9.1S842,144.33,842,144.33s-3.8-7.41-6.06-7.65c-3-.31.17,11.17,5.55,14.38s-4.06-8.09-7.93-8.22,1.91,7.64,6.09,9.35c-4.47-2.48-9.34-6.73-7.71-2.45a24,24,0,0,0,18.93,14.82C862.51,166.13,860.05,152.43,860.05,152.43Z" transform="translate(-16.92 -27.99)"/><path class="cls-27" d="M860,154.17c-3.7-1.22-3.46-13.5-5.26-15-.16-.12-4.22-.6-3,2.89,2,5.56.31,4.53.31,4.53s-1.88-8.43-3.79-7.21.87,7.65.87,7.65-1.95-6.22-3.33-5.19,2.54,7.7,2.54,7.7-4.57-6.76-6.07-4.57,4.73,7.21,4.73,7.21-3.85-4-5.31-3.8c-1.94.31,2.28,7,6.3,8.13s-4.14-4.41-6.6-3.83,2.69,4.5,5.67,4.85c-3.3-.8-7.65-3.46-5.79-1s8.29,6.58,15.95,5.57S860,154.17,860,154.17Z" transform="translate(-16.92 -27.99)"/><path class="cls-21" d="M862.67,157.33c-3.07-2.29-1.61-7.42-1.61-7.42s-1.34-8.85-3.55-8.28-2,5.08-2,5.08.23-4.36-1.43-3.79-.79,6.46-.79,6.46-.34-5.74-2.55-4.12.38,6.19.38,6.19-2.23-5-3.7-5.2c-1.94-.31-.31,7.32,3.11,9.59s-2.36-5.43-4.89-5.63,1,5.07,3.65,6.32c-2.84-1.77-6.42-3.35-5.5-.5s5.94,6.5,13.52,7.89S862.67,157.33,862.67,157.33Z" transform="translate(-16.92 -27.99)"/><path class="cls-17" d="M837.47,135.13c.71,2.79,7.51,17.57,13.16,20.17-2-.47-7.81-5.44-9.39-9.22S837.47,135.13,837.47,135.13Z" transform="translate(-16.92 -27.99)"/><path class="cls-17" d="M841.7,130.13c.41,2.37,5,16.81,7.35,19.54,0,0-4.31-8.48-5.94-12.75A17,17,0,0,1,841.7,130.13Z" transform="translate(-16.92 -27.99)"/><path class="cls-17" d="M845.91,127.72c.09,1.11,2.06,14.59,3.77,16.94-2.29-3.5-3.84-10.8-4-12.43A20.58,20.58,0,0,1,845.91,127.72Z" transform="translate(-16.92 -27.99)"/><path class="cls-17" d="M834.83,140c.18,2.16,6.77,13.44,14.26,16.13,0,0-6.91-2.5-10.32-7.87S834.83,140,834.83,140Z" transform="translate(-16.92 -27.99)"/><path class="cls-17" d="M832.77,145.74c.66,2.07,9.72,11.74,17.66,12.83,0,0-7.33-1-11.9-5.57S832.77,145.74,832.77,145.74Z" transform="translate(-16.92 -27.99)"/><path class="cls-17" d="M882.09,158.6c-.07,3-.47,6-4.91,6.63s-11,2.28-14.19,2.51-4.17,1.09-5.77,1.22,3.66-3.47,6.86-3.69,13.16.56,15.44-6.79C880.28,156,882.09,158.6,882.09,158.6Z" transform="translate(-16.92 -27.99)"/><path class="cls-17" d="M883.84,172.24c8.18-4.32,9.15-9.59,7.82-15.29-1.08,13.68-13.61,9.42-17.62,9s-16,7.88-23-9.14c0,0-5-.07-6.83,2.46.19.31,2,3.36,2.17,3.69C851.92,171.8,874,177.43,883.84,172.24Z" transform="translate(-16.92 -27.99)"/><path class="cls-21" d="M857.12,153.53c-1.87.68-3.84-1.25-3.84-1.25s-4.43-1.74-4.75-.66,1.81,2.14,1.81,2.14-2-1.22-2.13-.39,2.75,2,2.75,2-2.73-1.34-2.57,0,2.94,1.45,2.94,1.45-2.89-.35-3.4.2c-.65.74,3.3,2,5.25,1.18s-3.13-.41-3.9.59,2.59.91,3.89.11c-1.58.73-3.26,1.82-1.71,2.17s4.57-.81,7.26-3.62S857.12,153.53,857.12,153.53Z" transform="translate(-16.92 -27.99)"/><path class="cls-7" d="M884.47,170.89c.28-1.23-3.5,1.45-7.25,2,2.18-.65,6.16-2.18,5.92-3.66-.3-1.92-2.1,2.17-9.07,1.63l-4.5-.35s-.46-.12,1.47-1.39c.86-.56,2.32-.35,3-1.18,1.07-1.23.12-.85-4.18-.76a27.48,27.48,0,0,0-6.16.5c-1.9.45-2.74,1.24-5.1,1.33-.1,0-2.73-.52-6.15-1.22-1.15-.39-4.82,9.46-.81,10.52l5,.93c4.78,0,13.74,1.88,18.87,1.13,0,0,7.13-2.87,8.07-5.88.3-1-3.79.43-4,.11A7.15,7.15,0,0,0,884.47,170.89Z" transform="translate(-16.92 -27.99)"/><path class="cls-10" d="M831.72,158.43c1.47.18,25.53,9.16,26.16,9.56-1.3,1-5.31,11.23-4.79,16.43-9.23-5.76-32-21.91-34-21.35C819.13,163.07,825.78,157.71,831.72,158.43Z" transform="translate(-16.92 -27.99)"/><path class="cls-10" d="M910,104.56c3.84,0,8.3,4.48,11.49,13.43s7.24,40.8,9.79,44.38S941.5,207,941.5,207s-16,5.92-18.06.29c-2.15-6-8.94-32.53-10.85-43.88s-2.23-16.41-4.15-27.75S910,104.56,910,104.56Z" transform="translate(-16.92 -27.99)"/><path class="cls-2" d="M958.36,246.36c.2,5.87-3.73,10.76-8.77,10.9s-9.29-4.5-9.48-10.38,3.73-10.76,8.77-10.91S958.17,240.48,958.36,246.36Z" transform="translate(-16.92 -27.99)"/><path class="cls-15" d="M957.17,246.08c.16,5.24-3.22,9.56-7.55,9.69s-8-4-8.18-9.24,3.21-9.59,7.56-9.7S957,240.84,957.17,246.08Z" transform="translate(-16.92 -27.99)"/><path class="cls-2" d="M149.45,126.47c3.1,7.67,12.4,24.55,12.05,26.07S171.83,171.33,176,165.2c2.53-3.75,9-10.82,4.13-22.24-3.29-7.68-20.32-43.32-24.79-42.94S149.45,126.47,149.45,126.47Z" transform="translate(-16.92 -27.99)"/><path class="cls-2" d="M181,155.8c0,5-14.43,21.57-16.84,22.34s-12.79-2.78-12.27-10.26,9.28-22.24,13.77-24.54S181,155.8,181,155.8Z" transform="translate(-16.92 -27.99)"/><path class="cls-28" d="M104.27,70.34c-9.16.7-23.21-4.19-18.88-10.46,2.77-4,17.51-5.48,31.18-7.23,13.2-1.68,25.29-7.84,27.73-3.06,3.35,3.91-8.39,15.06-14.32,16S104.27,70.34,104.27,70.34Z" transform="translate(-16.92 -27.99)"/><path class="cls-2" d="M95.45,91.89c4-4.88,7.3-8,10.35-8.18s28.69-2.38,30.47,3.48-6.09,17.57-6.09,17.57Z" transform="translate(-16.92 -27.99)"/><path class="cls-7" d="M95.62,98.32s6.7-4.45,8.53-6.69c1.31-3.68,3.18-12.91,3-18.48L113.31,72h0l0,0,0,0v0L129,73.61c.12,17.11,5.19,22.17,5.19,22.17l-1.39,30.88Z" transform="translate(-16.92 -27.99)"/><g class="cls-8"><path class="cls-29" d="M129,76.35c.53,4.14-.43,10.78,5.37,17.25-1.92,3.39-17.78,22.58-21.67,22.68-3.2.08-15.78-14.78-17.89-17.14,9-.87,8.28-7.26,9.9-9a80.5,80.5,0,0,0,1.78-16.89Z" transform="translate(-16.92 -27.99)"/></g><path class="cls-7" d="M101.89,66.16c1.5,6.67,4,15.45,7.75,18.65,2.21,1.92,8.13,3.49,9.92,3.37,3.85-.25,8.17-5.07,10.39-7.6,1.87-2.14.72-9.34,1-17.57.43-11.61-2.4-24-17.35-21.14C94.17,45.61,99.36,55,101.89,66.16Z" transform="translate(-16.92 -27.99)"/><path class="cls-7" d="M102.2,61.5c-1.63.11-4.4,1.75-4.14,4.2s5.09,9.44,6.75,8.92S102.2,61.5,102.2,61.5Z" transform="translate(-16.92 -27.99)"/><path class="cls-7" d="M130.17,58.1c2.13-1.59,3.7.32,3,4S131,71,130.22,70,130.17,58.1,130.17,58.1Z" transform="translate(-16.92 -27.99)"/><path class="cls-13" d="M117.77,46.43c7.68-6.21,12.65,5.19,12.31,12.84,1.5-1.77,2.37-1.44,2.37-1.44s.94-2.48-.23-8.37c-.8-4.08-9.35-19.46-16.58-12.92S117.77,46.43,117.77,46.43Z" transform="translate(-16.92 -27.99)"/><path class="cls-12" d="M120.59,44.75c-1.49,2.67-8.88,5.74-11.71,4.27-4.77-2.46-6.69,4.23-6.75,6.06s1.72,9,1.72,9l-2.61-1.26s-.16-.23-1.75.42c-.57.23-2.15-6-2.15-10,0-9.26,11.06-20.8,16.46-19.09,4,1.27,7.22.59,8.13,4.91S120.59,44.75,120.59,44.75Z" transform="translate(-16.92 -27.99)"/><path class="cls-13" d="M116.9,46.94c-4.87,1.47-2.33-1-8.79-.68-3.88.18-5.31,4.61-5.31,4.61s2.43-7.9,8-6.24S117,44,117,44s-10.16-2.53-13,2.67c1-4,5.36-7.4,10.24-5.66.92-.29-4.73-1.79-5.47-1,.92-2.4,8.49-6,11.78-2.2s1.73,4.89.57,6.06A33.3,33.3,0,0,1,116.9,46.94Z" transform="translate(-16.92 -27.99)"/><path class="cls-14" d="M95.51,389.16c-.77-3.8-.42-8.27,5.49-11.77,4.55-2.71,7.54-9.22,6.58-17.31l13.91,2.21c1,7.3,3.18,16.2,1.44,21.3-1.33,3.84-3.54,3.1-4.22,4.1,0,.17-2.22,10.62-18.23,6.82C98.6,394.07,95.75,390.37,95.51,389.16Z" transform="translate(-16.92 -27.99)"/><path class="cls-15" d="M122.93,383.59c.3.8-.75,6.63-2.63,6s-3.87,2.47-6.33,5-9.8,1.48-12.64.84a18,18,0,0,0-5.67-.23s-2.39-6.7.49-7.63,8.51.87,10.83,2,7.53,2.91,9,.86S122.38,382.16,122.93,383.59Z" transform="translate(-16.92 -27.99)"/><path class="cls-14" d="M203.87,386.51c1.2-6.51-5.3-8.19-11.49-11-4.78-2.17-12.8-7.93-12.59-16.09l-14.49,3.42c-.34,7.37-1.5,19.27.7,24.14,1.68,3.68,3.71.06,4.46,1,7.71,1.94,23.68,5.27,27.32,4C199.6,391.27,203.65,387.72,203.87,386.51Z" transform="translate(-16.92 -27.99)"/><path class="cls-15" d="M164.88,384.2c-.23.84.34,5.66,2.24,6.13,5.76,1.44,10.49-1.52,19,3,3,1.61,10.77.78,13.53-.19a8.47,8.47,0,0,0,3.61-2s2.85-6.11-.09-6.7-5.2,1.17-7.4,2.58-4.22,4.31-11.11,1.54C182.44,387.62,165.29,382.72,164.88,384.2Z" transform="translate(-16.92 -27.99)"/><path class="cls-21" d="M143.94,92.74c-7.58-3.45-12.67-5.46-12.67-5.46s2.21,4.11-4.26,8.29a13.46,13.46,0,0,1-4.13,1.49c-18.92,2.31-17.69-9.89-17.69-9.89s-3.45,3-16.27,7c-5.15,1.62-2,7.3-2,13.72,0,4.93,3.09,19.86,4.63,25.16s.91,29.54.94,39.29c0,5.44,53.44-5.52,53.48-6.91C146.44,139.28,150.43,95.69,143.94,92.74Z" transform="translate(-16.92 -27.99)"/><path class="cls-4" d="M136.73,88.06c2,6.59-3.57,19-7.4,31.08-3.75,11.79-6.21,23.53-4.75,29.8,3.08,13.15,19.12,27.45,19.73,31.43,6.33.66,2.81-30.31,3.82-37.88s10.34-43,6.53-44.9C148.52,94.57,136.73,88.06,136.73,88.06Z" transform="translate(-16.92 -27.99)"/><path class="cls-2" d="M127.68,206.69c4.49-2.15,1.25-52.23-.39-68.71-2.71-27.29-28.55-35.23-26.17-50.66C88.7,92.18,80.45,92.87,77.8,98.1c1.79,10.42,6.22,28.43,4.56,32,1.29,8.94,5.85,21.63,4.4,29.71s-3.89,38.55,2.35,42.63C91.74,203.82,120.54,210.1,127.68,206.69Z" transform="translate(-16.92 -27.99)"/><path class="cls-2" d="M80.38,95.23c-3.61.38-6.24,2.58-12.48,7.57C57,111.54,48.52,116.31,36.64,123.51c-6.71,4-1.55,29,14.3,20.22,2-1.11,34.46-10.82,35.56-14.19C90.63,116.72,80.38,95.23,80.38,95.23Z" transform="translate(-16.92 -27.99)"/><path class="cls-16" d="M94.94,55.64c.7-10.73,2.44-14.25,3-19.31.6-6.07,21.12-11.87,25.68-5.71,3.79,5.13,8,10.74,10,16.11S94.94,55.64,94.94,55.64Z" transform="translate(-16.92 -27.99)"/><path class="cls-16" d="M85.9,59c5.18-2.87,13.09-2.32,30.7-5.23,15.49-2.58,16.61-6.59,26.07-5.62,1.82.19-11.11-2.28-11.11-2.28L96.25,53.27Z" transform="translate(-16.92 -27.99)"/><path class="cls-6" d="M117.92,47.43A203.18,203.18,0,0,0,95.19,54l-.08-1.35s19-11.37,36.77-8.91c1.55,1.72,1.55,2.39,1.55,2.39A76.11,76.11,0,0,0,117.92,47.43Z" transform="translate(-16.92 -27.99)"/><path class="cls-30" d="M86.93,91.49c6.2,10.37,8.73,29.82,5.64,45.91-1.55,8,8.66,4,8.66,4s-1.17-33.84-8-51.09C92.72,89.09,86.93,91.49,86.93,91.49Z" transform="translate(-16.92 -27.99)"/><path class="cls-4" d="M127.17,145.11c1.09-37.88-26.88-43.72-25.06-56.82a13.54,13.54,0,0,1,1.6-3.91,12.57,12.57,0,0,0-5,2.79C95.43,90,91.76,94.69,90.08,95c2,2,6.57.88,16.86,10C132.52,127.65,127.17,145.11,127.17,145.11Z" transform="translate(-16.92 -27.99)"/><path class="cls-31" d="M138.42,89.14c.77,3.45,9.57,15,3.88,45.14,3.1,1.15,8.27-.28,8.27-.28s-2.25-40.65-5.86-42.37A44.45,44.45,0,0,0,138.42,89.14Z" transform="translate(-16.92 -27.99)"/><path class="cls-2" d="M126,138.29c-5-23.91,12.42-29.53,8.93-52.68,0,0,14.65,7.64,16.17,7.57,0,0-9.06,1.49-12.66,8.1C131.54,114,126.21,134,126.21,134Z" transform="translate(-16.92 -27.99)"/><path class="cls-30" d="M171.83,305.52c2.08-5.76-3.43-33-3.43-33-2.76-21.08-13.31-61.91-13.31-76.87l-3.62-70.87s-46.28,7.61-59.89-.25c2.75,16.88-7.24,42.18-7.24,42.18,0,10-3.44,34.51-3.44,41.41S89,291.33,90.38,299c-2.76,22.23,2.19,55.25,2.84,82.56,6.88-4.59,17.3-4.59,22.6-2.58a22.32,22.32,0,0,0,8.66,1.67s-2.76-63.63-2.76-72.07,1.55-8,.17-27.23c-.58-7.95,1.11-22.58,2.58-34.79,4.6,20.6,15.11,54.68,15.84,58.76,11.89,65.18,19.13,77.06,19.13,77.06s13.43,1.53,26.87-12.27C185.27,358.62,169.76,311.27,171.83,305.52Z" transform="translate(-16.92 -27.99)"/><path class="cls-4" d="M154.44,98.27s-.36-1.19,4.34,2.22,16.18,30.45,18,34.79l4,9.41-7.4-1,3.91-2.33-5.64,1.18a10,10,0,0,1,1.73-3.64c1.53-2.32-5.46-10.22-8.84-19-3.28-8.48-8.22-14.59-11-16.13Z" transform="translate(-16.92 -27.99)"/><path class="cls-31" d="M174.11,304.18c2.07-5.76-4.94-29.43-4.94-29.43-2.76-21.08-13.52-66.61-13.52-81.56l-4.18-68.39a62,62,0,0,1-8.53,1.29c5.38,26.35,7.37,49.46,6.34,64.42-.51,7.25-1.47,11.3,4,32.58,1.83,7.21,9.16,53.39,8.64,57.41,4.13,11.5,5.17,18.12,2.07,22.72s-3.82,6.32-1.76,6.32,4.86,7.48,4.86,7.48,3.1,11.49,3.1,16.68,10.13,41.79,10.13,41.79,3.44-1,6.71-5.18C183.28,351.88,172.42,308.87,174.11,304.18Z" transform="translate(-16.92 -27.99)"/><path class="cls-31" d="M126,380.52s-4.43-63.49-4.43-71.93,2.58-5.95,1.2-25.11a205.67,205.67,0,0,1,1.17-34.38,19.78,19.78,0,0,1,1.07-8c-1.55,3.25-4.65,22.81-6.71,40.64-1,8.17-.7,14.57-5,26.46-4,11.13.14,50.65.66,70.2,0,.52,5,2.15,5.31,2.49A12.94,12.94,0,0,0,126,380.52Z" transform="translate(-16.92 -27.99)"/><path class="cls-28" d="M156.61,143.32a1.83,1.83,0,0,1,.62-2.07h0c4.19-2.66,10.57-4,13.62-3.18h0a2.42,2.42,0,0,1,1.54,1.12h0a1.87,1.87,0,0,1-.31,2.15h0a1,1,0,0,1-1.62-.15h0a2.75,2.75,0,0,0-.32-.13h0c-1.93-.67-8.57.59-12,2.91h0a1,1,0,0,1-.83.14h0a1.19,1.19,0,0,1-.73-.78Z" transform="translate(-16.92 -27.99)"/><path class="cls-28" d="M114,146.48a1.06,1.06,0,0,1-.93-.06c-5-2.69-12.78-2.86-13.76-1.66a1,1,0,0,1-1.74.4,2.37,2.37,0,0,1-.61-2.49c1.35-3.49,11.73-2.19,16.76.52a2.25,2.25,0,0,1,1,2.31A1.35,1.35,0,0,1,114,146.48Z" transform="translate(-16.92 -27.99)"/><path class="cls-32" d="M105.93,139.58c.12,3.62,13.46,6,29.8,5.37s29.5-4.15,29.39-7.76-13.47-6-29.82-5.37S105.82,136,105.93,139.58Z" transform="translate(-16.92 -27.99)"/><path class="cls-28" d="M117.8,155.27a1,1,0,0,1-.65,0c-16.46-4.19-19.51-7.08-20.31-9.34a3.49,3.49,0,0,1,.2-3,1.1,1.1,0,0,1,1.86,0,2.35,2.35,0,0,1,.49,2.14c.75.79,4,3.24,17.85,6.75a2.08,2.08,0,0,1,1.29,2.07A1.43,1.43,0,0,1,117.8,155.27Z" transform="translate(-16.92 -27.99)"/><path class="cls-28" d="M154,150.94A1.73,1.73,0,0,1,155,149h0a90.44,90.44,0,0,0,11.91-5h0a12.83,12.83,0,0,0,3.54-2.5h0a1.88,1.88,0,0,1,.21-1.88h0a1,1,0,0,1,1.68-.14h0a2.8,2.8,0,0,1,.51,2.51h0c-.61,2-2,2.93-4.65,4.52h0A84.93,84.93,0,0,1,155.43,152h0a.93.93,0,0,1-.59,0h0a1.25,1.25,0,0,1-.82-1.07Z" transform="translate(-16.92 -27.99)"/><path class="cls-33" d="M115.43,154.77c-2.08-5.36.16-19.38,3.47-22.21l3.33-2.83s.53,3.83-.14,4.75-2.66-.2-3.69,1.77-5.3,16.06-.21,19.87C119.11,156.81,115.43,154.77,115.43,154.77Z" transform="translate(-16.92 -27.99)"/><path class="cls-34" d="M132.21,130.36c7.88,3.26,15.7,9,14.79,11.72s-10.23,1.37-18.1-1.88-8.42-6-7.5-8.7S124.33,127.11,132.21,130.36Z" transform="translate(-16.92 -27.99)"/><path class="cls-33" d="M122.59,131.38c-.18.36,0,.86.35,1.39,2-.67,5.41.16,10.68,2.08a66.64,66.64,0,0,1,12.54,6.48c-.76-1.82-7.19-6.67-12.17-8.73C128.1,130.17,124,128.57,122.59,131.38Z" transform="translate(-16.92 -27.99)"/><path class="cls-35" d="M128.82,139.35c.24.1.33.47.22.82s-.41.56-.65.45a.63.63,0,0,1-.23-.81C128.28,139.46,128.58,139.25,128.82,139.35Z" transform="translate(-16.92 -27.99)"/><path class="cls-36" d="M136.42,131.38c.24.09.34.46.21.81s-.39.56-.64.45-.35-.46-.23-.81S136.17,131.28,136.42,131.38Z" transform="translate(-16.92 -27.99)"/><path class="cls-37" d="M138.25,142.13a.67.67,0,0,1,.23.82c-.12.35-.41.55-.66.45a.66.66,0,0,1-.22-.82C137.71,142.23,138,142,138.25,142.13Z" transform="translate(-16.92 -27.99)"/><path class="cls-38" d="M132.75,141.16a.65.65,0,0,1,.23.82c-.12.35-.4.56-.65.45s-.34-.47-.22-.82S132.5,141.07,132.75,141.16Z" transform="translate(-16.92 -27.99)"/><path class="cls-39" d="M125.54,138.08a.65.65,0,0,1,.23.81c-.13.36-.4.57-.65.47a.67.67,0,0,1-.23-.83C125,138.18,125.31,138,125.54,138.08Z" transform="translate(-16.92 -27.99)"/><path class="cls-40" d="M126.45,128.06a.62.62,0,0,1,.21.8c-.11.35-.41.55-.64.46s-.35-.47-.24-.82S126.2,128,126.45,128.06Z" transform="translate(-16.92 -27.99)"/><path class="cls-41" d="M131.49,128.94c.23.09.33.46.21.82s-.4.55-.65.44a.67.67,0,0,1-.23-.82C130.93,129,131.23,128.83,131.49,128.94Z" transform="translate(-16.92 -27.99)"/><path class="cls-42" d="M133,136.68a.66.66,0,0,1,.24.83c-.12.34-.41.54-.66.43s-.33-.46-.23-.81S132.81,136.58,133,136.68Z" transform="translate(-16.92 -27.99)"/><path class="cls-42" d="M125.18,135c.25.09.35.46.22.82s-.39.54-.64.45a.62.62,0,0,1-.22-.82C124.65,135.11,124.94,134.91,125.18,135Z" transform="translate(-16.92 -27.99)"/><path class="cls-42" d="M128.71,137.22a.63.63,0,0,1,.23.81c-.12.35-.41.55-.65.45s-.34-.46-.21-.82S128.47,137.12,128.71,137.22Z" transform="translate(-16.92 -27.99)"/><path class="cls-42" d="M127.65,134.17c.12.05.15.21.11.37s-.19.25-.31.2-.15-.2-.09-.36S127.54,134.12,127.65,134.17Z" transform="translate(-16.92 -27.99)"/><path class="cls-42" d="M136.7,140.22c.21.07.29.36.19.65s-.32.44-.53.36a.53.53,0,0,1-.17-.65C136.29,140.29,136.51,140.13,136.7,140.22Z" transform="translate(-16.92 -27.99)"/><path class="cls-42" d="M139.1,138.66c.13.05.17.22.12.4s-.2.27-.32.22a.3.3,0,0,1-.12-.4C138.84,138.7,139,138.6,139.1,138.66Z" transform="translate(-16.92 -27.99)"/><path class="cls-43" d="M142.24,139.6c.18.09.31.28.25.43a.31.31,0,0,1-.44.15.37.37,0,0,1-.26-.44A.33.33,0,0,1,142.24,139.6Z" transform="translate(-16.92 -27.99)"/><path class="cls-33" d="M120.23,131.91c1.15-2.08,1.39-6,1.39-6s1,3.85.54,4.88a14.59,14.59,0,0,0-.69,2.86,15.07,15.07,0,0,1,.3,4.74,1.76,1.76,0,0,1-.3.66s-.24-4.16-1.13-4.75S120.23,131.91,120.23,131.91Z" transform="translate(-16.92 -27.99)"/><path class="cls-33" d="M152.73,124.54c2.76-2.15,4.51-.42,6,2.22l1.46,2.63s-2,.73-2.44.21.1-2.28-.93-3-2.8-4.22-4.75.39C151.7,127.81,152.73,124.54,152.73,124.54Z" transform="translate(-16.92 -27.99)"/><path class="cls-33" d="M159.87,138c-1.64,6.94-4.59,14-6,13.44s-.75-8.64.91-15.58,3.06-7.59,4.46-7S161.53,131,159.87,138Z" transform="translate(-16.92 -27.99)"/><path class="cls-42" d="M159.32,129.81c-.18-.13-.43.08-.71.4.35,1.62-.07,4.62-1,9.25a87.6,87.6,0,0,1-3.31,11.17c.94-.77,3.41-6.61,4.46-11C160,134.42,160.78,130.83,159.32,129.81Z" transform="translate(-16.92 -27.99)"/><path class="cls-44" d="M155.24,135.68a.31.31,0,0,1-.42.25.46.46,0,0,1-.24-.54.31.31,0,0,1,.41-.24A.48.48,0,0,1,155.24,135.68Z" transform="translate(-16.92 -27.99)"/><path class="cls-45" d="M159.36,141.61a.3.3,0,0,1-.41.25.49.49,0,0,1-.24-.54.3.3,0,0,1,.42-.23A.42.42,0,0,1,159.36,141.61Z" transform="translate(-16.92 -27.99)"/><path class="cls-46" d="M153.84,143.92a.33.33,0,0,1-.44.26.52.52,0,0,1-.23-.53c.06-.22.24-.33.42-.25A.46.46,0,0,1,153.84,143.92Z" transform="translate(-16.92 -27.99)"/><path class="cls-47" d="M154.32,139.17a.31.31,0,0,1-.43.24.44.44,0,0,1-.22-.53.29.29,0,0,1,.41-.23A.46.46,0,0,1,154.32,139.17Z" transform="translate(-16.92 -27.99)"/><path class="cls-48" d="M155.87,132.8a.29.29,0,0,1-.41.24.45.45,0,0,1-.24-.52.32.32,0,0,1,.42-.25A.45.45,0,0,1,155.87,132.8Z" transform="translate(-16.92 -27.99)"/><path class="cls-49" d="M161.05,132.86a.32.32,0,0,1-.42.26.5.5,0,0,1-.24-.53c.06-.22.24-.33.42-.25A.45.45,0,0,1,161.05,132.86Z" transform="translate(-16.92 -27.99)"/><path class="cls-50" d="M160.61,137.23a.3.3,0,0,1-.42.24A.46.46,0,0,1,160,137c.06-.23.24-.34.42-.26A.45.45,0,0,1,160.61,137.23Z" transform="translate(-16.92 -27.99)"/><path class="cls-42" d="M156.62,139.11a.31.31,0,0,1-.42.25.48.48,0,0,1-.24-.54.31.31,0,0,1,.43-.24A.45.45,0,0,1,156.62,139.11Z" transform="translate(-16.92 -27.99)"/><path class="cls-42" d="M157.47,132.28a.31.31,0,0,1-.43.24.44.44,0,0,1-.23-.52.31.31,0,0,1,.41-.25A.47.47,0,0,1,157.47,132.28Z" transform="translate(-16.92 -27.99)"/><path class="cls-42" d="M156.34,135.44a.32.32,0,0,1-.43.25.48.48,0,0,1-.24-.53.32.32,0,0,1,.43-.24A.49.49,0,0,1,156.34,135.44Z" transform="translate(-16.92 -27.99)"/><path class="cls-42" d="M157.9,134.32a.14.14,0,0,1-.19.12.2.2,0,0,1-.1-.24c0-.1.11-.16.18-.11A.21.21,0,0,1,157.9,134.32Z" transform="translate(-16.92 -27.99)"/><path class="cls-42" d="M154.81,142.48a.24.24,0,0,1-.33.19.35.35,0,0,1-.19-.41c0-.18.19-.27.33-.2A.38.38,0,0,1,154.81,142.48Z" transform="translate(-16.92 -27.99)"/><path class="cls-42" d="M155.63,144.41a.16.16,0,0,1-.21.12.22.22,0,0,1-.11-.26.15.15,0,0,1,.2-.12A.23.23,0,0,1,155.63,144.41Z" transform="translate(-16.92 -27.99)"/><path class="cls-51" d="M155.15,147.15c-.05.17-.14.28-.22.25s-.11-.2-.09-.37.15-.28.23-.24S155.19,147,155.15,147.15Z" transform="translate(-16.92 -27.99)"/><path class="cls-33" d="M159,127.83a5.83,5.83,0,0,0,3.12.78s-2,1.09-2.51.79a4.62,4.62,0,0,0-1.49-.38,5.05,5.05,0,0,1-2.43.58.63.63,0,0,1-.34-.22s2.14-.5,2.44-1.27S159,127.83,159,127.83Z" transform="translate(-16.92 -27.99)"/><path class="cls-33" d="M133.94,133.73c-.62-5,1.62-6.75,4.5-7.65l2.88-.91s-.24,3.2-.9,3.66-1.88-1.2-3-.06-4.81,2.13-1.75,7.1C136.27,136.78,133.94,133.73,133.94,133.73Z" transform="translate(-16.92 -27.99)"/><path class="cls-33" d="M148.47,129.57c5.18,5.63,9.91,13.21,8.78,15s-7.65-2.93-12.83-8.58-5.11-8-4-9.75S143.3,123.93,148.47,129.57Z" transform="translate(-16.92 -27.99)"/><path class="cls-42" d="M141.3,126.6c-.18.21-.11.68,0,1.22,1.53.24,3.9,2.25,7.4,5.81a79.54,79.54,0,0,1,8,10c-.24-1.73-4.11-8-7.39-11.61C145.51,127.8,142.82,125,141.3,126.6Z" transform="translate(-16.92 -27.99)"/><path class="cls-52" d="M144.5,135.28a.61.61,0,0,1,0,.73c-.15.23-.39.28-.55.1a.65.65,0,0,1,0-.72A.34.34,0,0,1,144.5,135.28Z" transform="translate(-16.92 -27.99)"/><path class="cls-53" d="M151.35,132a.6.6,0,0,1,0,.72.33.33,0,0,1-.54.1.66.66,0,0,1,0-.74A.34.34,0,0,1,151.35,132Z" transform="translate(-16.92 -27.99)"/><path class="cls-54" d="M150.89,141.16a.64.64,0,0,1,0,.74.33.33,0,0,1-.55.08.63.63,0,0,1,0-.72C150.49,141,150.73,141,150.89,141.16Z" transform="translate(-16.92 -27.99)"/><path class="cls-55" d="M147.06,138.25a.6.6,0,0,1,0,.71c-.15.23-.4.29-.54.11a.65.65,0,0,1-.05-.72C146.66,138.12,146.91,138.07,147.06,138.25Z" transform="translate(-16.92 -27.99)"/><path class="cls-56" d="M142.34,133a.61.61,0,0,1,0,.72c-.15.22-.39.28-.55.1a.63.63,0,0,1,0-.73C141.94,132.87,142.19,132.83,142.34,133Z" transform="translate(-16.92 -27.99)"/><path class="cls-57" d="M144.66,125.49a.64.64,0,0,1,0,.74.33.33,0,0,1-.55.09.63.63,0,0,1,0-.73C144.26,125.36,144.51,125.31,144.66,125.49Z" transform="translate(-16.92 -27.99)"/><path class="cls-58" d="M148.17,128.17a.63.63,0,0,1,0,.72c-.15.23-.4.28-.56.09a.65.65,0,0,1,0-.72C147.76,128,148,128,148.17,128.17Z" transform="translate(-16.92 -27.99)"/><path class="cls-42" d="M148,134.85a.7.7,0,0,1,0,.74.34.34,0,0,1-.56.08.58.58,0,0,1,0-.72A.34.34,0,0,1,148,134.85Z" transform="translate(-16.92 -27.99)"/><path class="cls-42" d="M142.59,130.46a.6.6,0,0,1,0,.72.33.33,0,0,1-.54.1.61.61,0,0,1,0-.72C142.19,130.33,142.42,130.28,142.59,130.46Z" transform="translate(-16.92 -27.99)"/><path class="cls-42" d="M144.78,133.56a.63.63,0,0,1,0,.74c-.15.23-.39.28-.55.1a.66.66,0,0,1,0-.74A.34.34,0,0,1,144.78,133.56Z" transform="translate(-16.92 -27.99)"/><path class="cls-42" d="M144.52,130.76a.26.26,0,0,1,0,.33.16.16,0,0,1-.25,0,.3.3,0,0,1,0-.33C144.34,130.71,144.45,130.68,144.52,130.76Z" transform="translate(-16.92 -27.99)"/><path class="cls-42" d="M150.09,139.07a.49.49,0,0,1,0,.57.28.28,0,0,1-.44.09.51.51,0,0,1,0-.59C149.77,139,150,138.91,150.09,139.07Z" transform="translate(-16.92 -27.99)"/><path class="cls-42" d="M152.1,138.76a.35.35,0,0,1,0,.37c-.08.12-.19.14-.27,0a.27.27,0,0,1,0-.36A.17.17,0,0,1,152.1,138.76Z" transform="translate(-16.92 -27.99)"/><path class="cls-59" d="M154.21,140.73c.13.15.19.35.11.45s-.21.08-.33-.06a.4.4,0,0,1-.12-.45C153.93,140.58,154.09,140.61,154.21,140.73Z" transform="translate(-16.92 -27.99)"/><path class="cls-33" d="M139.51,126.08c1.18-1.18,2-4.17,2-4.17s.07,3.41-.42,4a9.74,9.74,0,0,0-1,2,12.44,12.44,0,0,1-.57,3.82,1.24,1.24,0,0,1-.32.4s.51-3.35,0-4.15S139.51,126.08,139.51,126.08Z" transform="translate(-16.92 -27.99)"/><path class="cls-42" d="M135,164.47c-3.4-4.05-6-17.94-4.22-22l1.81-4s1.66,3.3,1.39,4.43-2.24,1-2.45,3.22.78,17.1,6.14,18.4C138.68,164.75,135,164.47,135,164.47Z" transform="translate(-16.92 -27.99)"/><path class="cls-34" d="M141,134.73c7.46-.4,15.67,1.52,15.78,4.42s-7.9,5.67-15.36,6.06-8.77-1.89-8.88-4.78S133.51,135.13,141,134.73Z" transform="translate(-16.92 -27.99)"/><path class="cls-33" d="M133.45,139.82c0,.39.28.78.72,1.12,1.38-1.47,4.46-2.17,9.36-2.68a49.62,49.62,0,0,1,12.31.55c-1.19-1.34-8-3-12.7-2.79C137.54,136.32,133.72,136.6,133.45,139.82Z" transform="translate(-16.92 -27.99)"/><path class="cls-60" d="M141.06,144.48c.23,0,.43.28.44.65s-.16.69-.39.7-.43-.28-.44-.64S140.82,144.49,141.06,144.48Z" transform="translate(-16.92 -27.99)"/><path class="cls-61" d="M149.63,143c.24,0,.43.29.45.66s-.16.68-.38.7-.44-.29-.46-.67S149.4,143,149.63,143Z" transform="translate(-16.92 -27.99)"/><path class="cls-62" d="M144.84,144.45c.24,0,.43.28.45.65s-.15.68-.39.69-.43-.27-.44-.65S144.61,144.46,144.84,144.45Z" transform="translate(-16.92 -27.99)"/><path class="cls-63" d="M138,144.72c.24,0,.44.27.45.65s-.16.68-.39.7-.43-.28-.45-.65S137.76,144.73,138,144.72Z" transform="translate(-16.92 -27.99)"/><path class="cls-64" d="M135.53,135.09c.23,0,.42.27.44.65s-.16.69-.38.7-.43-.28-.45-.65S135.3,135.09,135.53,135.09Z" transform="translate(-16.92 -27.99)"/><path class="cls-65" d="M143.66,140.2c.24,0,.43.27.45.65s-.16.68-.39.69-.44-.28-.45-.65S143.43,140.21,143.66,140.2Z" transform="translate(-16.92 -27.99)"/><path class="cls-66" d="M136.71,142c.23,0,.43.29.45.66s-.16.67-.38.69-.44-.29-.45-.66S136.48,142,136.71,142Z" transform="translate(-16.92 -27.99)"/><path class="cls-67" d="M140.29,142.56c.24,0,.43.27.46.65s-.17.68-.4.7-.43-.29-.44-.67S140.06,142.56,140.29,142.56Z" transform="translate(-16.92 -27.99)"/><path class="cls-68" d="M138.46,140.2c.11,0,.19.12.2.3s-.07.3-.18.31-.2-.11-.2-.3S138.35,140.21,138.46,140.2Z" transform="translate(-16.92 -27.99)"/><path class="cls-69" d="M147.77,141.87c.19,0,.35.22.36.52s-.12.54-.31.55-.34-.22-.36-.51S147.59,141.89,147.77,141.87Z" transform="translate(-16.92 -27.99)"/><path class="cls-70" d="M149.22,139.4c.12,0,.22.14.22.33s-.07.32-.18.33-.22-.14-.23-.31S149.11,139.4,149.22,139.4Z" transform="translate(-16.92 -27.99)"/><path class="cls-71" d="M152.09,138.93a.3.3,0,0,1,.35.28.32.32,0,0,1-.32.32.3.3,0,0,1-.34-.28A.31.31,0,0,1,152.09,138.93Z" transform="translate(-16.92 -27.99)"/><path class="cls-42" d="M131.68,141.31a20.51,20.51,0,0,0-.77-6.15s2,3.13,2,4.26a17,17,0,0,0,.34,2.94A14.93,14.93,0,0,1,135,146.6a2.53,2.53,0,0,1,0,.74s-1.52-3.73-2.42-3.89S131.68,141.31,131.68,141.31Z" transform="translate(-16.92 -27.99)"/><path class="cls-42" d="M127.29,138c.85.77,3.38,1.24,3.38,1.53s1.72-.19,1.72-.19l1.13-.77a31.68,31.68,0,0,1,.6-4.22c.26-.47-1.73,2.8-1.73,2.8l-.6-3-.86,3.64S127,137.68,127.29,138Z" transform="translate(-16.92 -27.99)"/><path class="cls-22" d="M131.36,138.94c-1.46-.39-4.57-.65-4.82,3.45-.43,7.09,6.71,9.58,9.48,7.38s7.14-8.06,1.11-12.08C134.64,136,131.36,138.94,131.36,138.94Z" transform="translate(-16.92 -27.99)"/><path class="cls-72" d="M136.76,146.08c-2.4,1.91-8.58-.25-8.21-6.39a.56.56,0,0,1,0-.07,3.43,3.43,0,0,0-1.06,2.56c-.37,6.14,5.82,8.3,8.21,6.39a10,10,0,0,0,3.48-5.23A11.68,11.68,0,0,1,136.76,146.08Z" transform="translate(-16.92 -27.99)"/><path class="cls-33" d="M110.73,132.66c.52.91,2.51,2.1,2.44,2.34s1.48.38,1.48.38l1.13-.28a28,28,0,0,1,1.58-3.33c.34-.32-2.15,1.79-2.15,1.79l.26-2.68-1.65,2.76S110.54,132.3,110.73,132.66Z" transform="translate(-16.92 -27.99)"/><path class="cls-22" d="M113.89,134.73c-1.12-.78-3.65-2-4.9,1.36-2.17,5.77,3.14,10.11,6,9.15s8-4.45,4-9.72C117.36,133.35,113.89,134.73,113.89,134.73Z" transform="translate(-16.92 -27.99)"/><path class="cls-72" d="M116.57,142.4c-2.49.83-7.1-2.93-5.22-7.93a.13.13,0,0,1,0-.05,2.77,2.77,0,0,0-1.54,1.8c-1.87,5,2.73,8.76,5.22,7.92a7.91,7.91,0,0,0,4.23-3.26A9.29,9.29,0,0,1,116.57,142.4Z" transform="translate(-16.92 -27.99)"/><path class="cls-33" d="M120.51,137a3.83,3.83,0,0,1,3.1-.57l-2.49,1.14-2.67,1.06a6.91,6.91,0,0,0-2.75-.2c2.49-1.33,3.18-.67,3.18-.67l-1.64-1.05s2.5-.29,2.67.19S120.51,137,120.51,137Z" transform="translate(-16.92 -27.99)"/><path class="cls-20" d="M126.71,143.59c0,3.57-2.6,6.47-5.8,6.47s-5.83-2.9-5.83-6.47,2.61-6.47,5.83-6.47S126.71,140,126.71,143.59Z" transform="translate(-16.92 -27.99)"/><path class="cls-22" d="M125.92,142.38a4.11,4.11,0,1,1-4.09-4.34A4.22,4.22,0,0,1,125.92,142.38Z" transform="translate(-16.92 -27.99)"/><path class="cls-16" d="M135.86,161.77H136l-.57-15.66,12.19-1.44,13.12-2.29,3.68-4.06L161,162.63c.11,3.56-13.26,7-24.77,7.46s-21-2.05-21.08-5.61S124.34,162.24,135.86,161.77Z" transform="translate(-16.92 -27.99)"/><path class="cls-6" d="M158.91,143.15l-33.75,2.31-15.5-1.73-2.92-2.49s5.92,22.86,5.92,23.34c.11,3.12,12.76,6.17,25.5,5.28,1.83-.13,9.66-1.3,11.46-1.6Z" transform="translate(-16.92 -27.99)"/><path class="cls-16" d="M105.91,138.84l.08,2.35c.11,3.63,13.46,6,29.79,5.38s29.49-4.15,29.37-7.78l-.05-1.66c-.71,3.49-13.49,6.78-29.3,7.42-16.34.66-29.68-1.75-29.8-5.38a.68.68,0,0,1,.06-.29Z" transform="translate(-16.92 -27.99)"/><path class="cls-7" d="M159.29,159.34s-4.94,1-6.92,1.07c-1.66-.36-6.23-1-6.39-1-1.71-.53-6.32-2.1-7.81-2.51s-1.24,2.15.05,3.07c.52.38,1.75,1.16,3.06,1.93a3.75,3.75,0,0,1-.89,1.46c-1.51,1.59-4.32,2.54-4.44,4.14a5.12,5.12,0,0,0,.57,2s-1,1.22,1.08,3.56a4.09,4.09,0,0,0,2.26,3.1,3.05,3.05,0,0,0,2.88,1.76c4-.08,8.28-2.47,11.26-4.54,2-.47,8.48-4.38,8.6-5.86A10.16,10.16,0,0,0,159.29,159.34Z" transform="translate(-16.92 -27.99)"/><path class="cls-7" d="M137.13,165.85c-1.74,1.07-5.49,4.16-5.75,4.23s-.32.73.58.94,4.91-1.15,4.91-1.15-5.68.72-5.49,2.08c.13.87,5.43,1.73,6.4,1.37-1.23.36-5.56-.86-5.56.07s6.09,1.88,6.33,1.58c-2.6-.22-5.3-.64-5-.14s8.2,3.88,9,3S137.13,165.85,137.13,165.85Z" transform="translate(-16.92 -27.99)"/><path class="cls-2" d="M155.13,158.87c2.75,1.34,8.09,1.92,7.58,17.06,4.31-3.07,17.74-22.27,17.57-24.15-.52-5.75-7.07-5.37-9.13-5.37S155.13,158.87,155.13,158.87Z" transform="translate(-16.92 -27.99)"/><path class="cls-7" d="M48.79,118.54c2.31-.86,2.83-1.58,3.22-.43s-.52,2.16-2.33,2.88S48.79,118.54,48.79,118.54Z" transform="translate(-16.92 -27.99)"/><path class="cls-2" d="M33.89,124.75c-4,7.29-4.15,24-.7,26.27s19,3.25,22.05-1-11.37-28.38-15.16-28.38A8.58,8.58,0,0,0,33.89,124.75Z" transform="translate(-16.92 -27.99)"/><path class="cls-24" d="M54.72,369a1.56,1.56,0,0,1-1.49,1.6l-3,.08a1.52,1.52,0,0,1-1.54-1.52l-4.63-279a1.56,1.56,0,0,1,1.48-1.6l3-.08A1.5,1.5,0,0,1,50.08,90Z" transform="translate(-16.92 -27.99)"/><path class="cls-15" d="M55.31,386.89a3.63,3.63,0,0,1-1.67.19l-3.3-.06c-.92,0-1.66-.12-1.66-.24l-.36-25a3.45,3.45,0,0,1,1.66-.19l3.31.06c.92,0,1.67.12,1.65.24Z" transform="translate(-16.92 -27.99)"/><path class="cls-14" d="M52.1,361.62l1.25,0c.92,0,1.68.12,1.65.25l.37,25-1.93.2h-.9Z" transform="translate(-16.92 -27.99)"/><polygon class="cls-14" points="4.11 360.01 5.78 363.06 65.9 362.76 66.3 361.04 64.89 358.2 4.62 356.89 4.11 360.01"/><polygon class="cls-14" points="65.27 361.77 53.81 365.95 59.87 361.14 65.27 361.77"/><polygon class="cls-14" points="59.12 361.88 47.67 366.05 53.7 361.25 59.12 361.88"/><polygon class="cls-14" points="52.31 361.9 40.85 366.07 46.91 361.27 52.31 361.9"/><polygon class="cls-14" points="45.5 361.93 34.04 366.1 40.1 361.29 45.5 361.93"/><polygon class="cls-14" points="38.7 361.95 27.24 366.12 33.28 361.33 38.7 361.95"/><polygon class="cls-14" points="31.89 361.98 20.42 366.15 26.48 361.34 31.89 361.98"/><polygon class="cls-14" points="25.07 362 13.62 366.18 19.66 361.37 25.07 362"/><polygon class="cls-14" points="18.27 362.02 6.8 366.2 12.85 361.4 18.27 362.02"/><polygon class="cls-14" points="11.45 362.05 0 366.23 6.05 361.41 11.45 362.05"/><polygon class="cls-15" points="5.78 363.06 65.9 362.76 66.3 361.04 6.28 360.74 5.78 363.06"/><path class="cls-7" d="M37.76,127.42c1.52-2.28,3.69-5.77,4.67-6.88l2-1.06a2.23,2.23,0,0,0,2.41,1.75c2.18,0,4.94-1.44,6.06-.3a5.34,5.34,0,0,1,.82,2s1.55.15,1.43,3.6c0,0,1.12,1.48.23,4.15a3.86,3.86,0,0,1-1.09,3.61c-3.14,3.08-8,4.62-11.55,5.37C33.93,141.19,36.2,128.91,37.76,127.42Z" transform="translate(-16.92 -27.99)"/><path class="cls-30" d="M77.46,202.86c-.6,8.79,2.54,32.41,5.94,33.38S97.77,224.84,99.63,215s-4.21-26.37-4.21-26.37Z" transform="translate(-16.92 -27.99)"/><path class="cls-31" d="M94.5,184.51c-4.58,8.93-12.84,14.57-15.63,15.17s-1.49,6.54-1.49,6.54S93.6,193,95.1,190.74,94.5,184.51,94.5,184.51Z" transform="translate(-16.92 -27.99)"/><path class="cls-30" d="M161.58,202.72c2,8.47.26,12.7.26,29.19-7.92-9.59-11.2-2.56-13.77-12.27-2.39-9-1-28.38-1-28.38Z" transform="translate(-16.92 -27.99)"/><path class="cls-31" d="M146.69,188c4.1,6.57,12.28,11.85,13.32,12,2.13.36,2.2,5.88,2.2,5.88s-5.62-3.87-14.49-12.73C146.5,191.63,146.69,188,146.69,188Z" transform="translate(-16.92 -27.99)"/></g></g></svg>