<svg xmlns="http://www.w3.org/2000/svg" xmlns:xlink="http://www.w3.org/1999/xlink" viewBox="0 0 507.83 261.23"><defs><style>.cls-1{isolation:isolate;}.cls-2{fill:#abc438;}.cls-3{fill:#71943d;}.cls-4{fill:#b9cb33;}.cls-5{fill:#bac8d2;}.cls-6{fill:#211d1d;}.cls-7{fill:#d4dee8;}.cls-31,.cls-8{fill:#9c5830;}.cls-9{fill:#da8f27;}.cls-10{fill:#faa83d;}.cls-11{fill:#510e41;}.cls-12,.cls-13{fill:#7a3418;}.cls-13{opacity:0.62;}.cls-14{fill:#010101;}.cls-15{fill:#732162;}.cls-16{fill:#d3a695;}.cls-17{fill:#89848c;opacity:0.35;}.cls-18,.cls-20{fill:#b28d9b;}.cls-19{fill:#d1b6c1;}.cls-20{opacity:0.7;}.cls-21,.cls-28,.cls-29{fill:#fff;}.cls-21,.cls-24,.cls-25,.cls-26,.cls-27,.cls-28,.cls-29{mix-blend-mode:soft-light;}.cls-22,.cls-23,.cls-30{mix-blend-mode:multiply;}.cls-22{fill:url(#linear-gradient);}.cls-23{fill:url(#linear-gradient-2);}.cls-24,.cls-27{fill:#afceed;}.cls-24,.cls-25{opacity:0.27;}.cls-25{fill:#93bbdd;}.cls-26{fill:#9bbedb;opacity:0.24;}.cls-27{opacity:0.39;}.cls-28{opacity:0.65;}.cls-29{opacity:0.85;}.cls-30{fill:url(#linear-gradient-3);}.cls-31{opacity:0.81;}.cls-32{fill:#262525;}</style><linearGradient id="linear-gradient" x1="428.83" y1="188.46" x2="426.92" y2="173.33" gradientUnits="userSpaceOnUse"><stop offset="0" stop-color="#fff"/><stop offset="0.51" stop-color="#ddd1cc"/><stop offset="0.97" stop-color="#c1aba3"/></linearGradient><linearGradient id="linear-gradient-2" x1="373.61" y1="191.57" x2="371.85" y2="177.62" xlink:href="#linear-gradient"/><linearGradient id="linear-gradient-3" x1="197.82" y1="156.62" x2="194.55" y2="130.63" xlink:href="#linear-gradient"/></defs><g class="cls-1"><g id="Layer_1" data-name="Layer 1"><path class="cls-2" d="M392.15,297.42c0,.5-1.7,3-5,4.44-1.62.77-3.64,2.58-6,2.3a12.49,12.49,0,0,1-8.13,1.7c-3.05.24-6.42,2.34-10.11,1.89-3.67-.23-7.64,1.77-11.9,1.57a55.71,55.71,0,0,0-6.57.48c-2.26-.06-4.58,2.68-7,1-2.4,2.11-4.83-.84-7.33.63a18.12,18.12,0,0,0-7.68.68c-2.61.4-5.28-.49-8-.2a10.66,10.66,0,0,1-8.29.93c-2.82.34-5.68.25-8.59.47s-5.85.48-8.84.86a62.92,62.92,0,0,0-15.26.62c-5.18.39-10.46.41-15.82.48-5.36-.16-10.8.19-16.32.35s-11.07.29-16.72.14c-2.79.14-5.62.16-8.47.09s-5.69-.24-8.56-.51c-2.84,1.17-5.72-.21-8.59-.25-2.87.41-5.76,1.07-8.66.55-2.89.2-5.76-1.11-8.6-.14a9.85,9.85,0,0,1-8.45-.16c-2.79,1.41-5.56,0-8.3-.33-2.73.44-5.44-.22-8.13-.12-2.69-1.64-5.34-.39-8-.18-2.63-.55-5.23-.1-7.8-.39-2.56.05-5.1.46-7.61.42-2.51,1-5-.41-7.44-1.12-2.45-.13-4.85.48-7.24-.4-2.38,1-4.73.12-7.05-.42-2.31,1.07-4.59-.55-6.85-.45-2.24-.18-4.45-.82-6.64-.48a15.14,15.14,0,0,1-6.43-.26c-2.11.26-4.18-.24-6.22-.42-2-.79-4-.15-6-1-2,.08-3.89-.58-5.77-.41-1.89.67-3.74.27-5.55.06-1.8.38-3.57-.29-5.31-1-3.45-.6-9.22-.36-12.35-.62-3.12.32-3.64-1.81-6.43-2.26s-6,.69-8.43.22c-14.57-2.87-22.28-7.71-22.28-11.07,0-2.69,5.28-5.22,14.83-7.49,2.4-.57,5.07-1.13,8-1.66,2.93-1.39,6.11-.36,9.54-1.56a8.15,8.15,0,0,0,5.34-1.05,20.38,20.38,0,0,1,5.7-.55c2,.15,4-.65,6.05-.63,2.08-.16,4.21-.74,6.4-.56a65.32,65.32,0,0,0,6.73-.87c2.31.48,4.66-.65,7.07-.77a16.69,16.69,0,0,1,7.38-.32,15.63,15.63,0,0,1,7.69-.28c2.19-.26,4.4.56,6.65.32,2.25-1,4.53-.43,6.84-1.09,2.32-.31,4.67.22,7.06-.2,2.38,1.05,4.79-.43,7.23-.44,2.45-.31,4.93.49,7.44-.07s5,.41,7.61-.53a61,61,0,0,1,7.79-.45c2.63.1,5.29.1,8,.15,2.68,1.54,5.4-.23,8.13-.51,2.74,0,5.51-1.16,8.3-.56s5.61.11,8.45.34c2.84-.75,5.71-.22,8.6.4s5.79,2.55,8.65,1.29c2.88-1.63,5.75-.1,8.6.12a23.43,23.43,0,0,1,8.56-.51c2.84-.29,5.66.18,8.47-.61,2.82-1.31,5.63,2.7,8.41.41,2.78,1.25,5.56.57,8.31.63,2.75,1.71,5.48-4.54,8.21.26,2.73,2.16,5.42-2.11,8.11-.39,2.68,3.36,5.34.14,8,.23,2.64-.41,5.27,1.58,7.86.65,2.59.24,5.16,1.75,7.71.5a8.84,8.84,0,0,1,7.54.1c3,.34,5.94.05,8.84.33a15.13,15.13,0,0,1,8.57,1.12c2.83-.85,5.6.27,8.31,1,2.71-1.85,5.39.26,8,.06a6.82,6.82,0,0,1,7.68.73c2.5-.5,4.95.45,7.33.76a15.94,15.94,0,0,1,7,.81c2.26-1.34,4.45-.5,6.59.84,4.25.64,8.23.76,11.9,1.67a17.64,17.64,0,0,1,10.11,2.06c3,.21,5.77-.87,8.13,1.75,2.37.67,4.37.44,6,2.43C390.44,294.84,392.15,295.84,392.15,297.42Z" transform="translate(-13.56 -55.16)"/><path class="cls-2" d="M68.33,282.87c0-3.24-6.81-8.46-6.81-8.46l13.09,8.45-3.16-9,7.86,8,.51-5.48,5.24,4.23s3.13-6,3.65-4.74,3.14,5.23,3.14,5.23v-6.47l4.2,5-4.7,4.49Z" transform="translate(-13.56 -55.16)"/><path class="cls-2" d="M33.31,286.39c0-3.23-6.8-8.46-6.8-8.46l13.08,8.46-3.14-9,7.84,7.95.52-5.48,5.24,4.23s3.12-6,3.65-4.73,3.13,5.23,3.13,5.23v-6.48l4.19,5-4.7,4.48Z" transform="translate(-13.56 -55.16)"/><path class="cls-3" d="M80.09,308.39c0-3.24-6.29-9.46-6.29-9.46l13.09,8.46-3.16-9,7.86,8,.51-5.48,8.46,5.53s1.33-10.7,1.86-9.46,1.71,8.66,1.71,8.66l6.53-4.84L108.9,309l-16.85.49Z" transform="translate(-13.56 -55.16)"/><path class="cls-4" d="M93.68,310.12c0-3.24-6.16-10.8-6.16-10.8L100,310.12l-3.15-9,7.86,8,.51-5.48,5.23,4.23s3.13-6,3.65-4.74,3.14,5.23,3.14,5.23v-6.47l4.19,5-4.7,4.49Z" transform="translate(-13.56 -55.16)"/><path class="cls-3" d="M225.05,310.75c0-2.36-4.57-6.89-4.57-6.89L230,310l-2.3-6.53,5.72,5.8.38-4,3.82,3.08s3.32-6.86,3.7-5.94,1.24,6.3,1.24,6.3l4.76-3.53-1.28,6-12.28.35Z" transform="translate(-13.56 -55.16)"/><path class="cls-4" d="M235,312c0-2.36-4.49-7.86-4.49-7.86l9.05,7.85-2.29-6.52,5.72,5.8.38-4,3.81,3.09s2.28-4.36,2.66-3.45,2.3,3.8,2.3,3.8V306l3,3.62-3.42,3.27Z" transform="translate(-13.56 -55.16)"/><path class="cls-3" d="M159,313c0-2.84-5.54-8.32-5.54-8.32L165,312.15l-2.77-7.89,6.9,7,.46-4.82,4.59,3.72s4-8.28,4.48-7.19,1.5,7.62,1.5,7.62l5.75-4.25-1.56,7.23-14.82.43Z" transform="translate(-13.56 -55.16)"/><path class="cls-4" d="M171,314.56c0-2.85-5.43-9.5-5.43-9.5l10.94,9.49-2.76-7.88,6.9,7,.45-4.82,4.61,3.72s2.74-5.27,3.21-4.17a51.87,51.87,0,0,0,2.76,4.6v-5.7l3.24,7.42-3.68.91Z" transform="translate(-13.56 -55.16)"/><path class="cls-5" d="M144.62,104.24c-3.57-.18-12.94-.6-16.07,18.71a75.57,75.57,0,0,0,4.74,17.62c4.47,7.92,16.74,17.84,21.82,20.26,2.45-3.27,6.57-11.1,10.75-14.27-4.28-4.85-7.28-7.38-11-11.08-2.28-5.13-.56-7.39-3.11-25.12C152.34,105.39,146.88,104.37,144.62,104.24Z" transform="translate(-13.56 -55.16)"/><path class="cls-6" d="M109.72,276.61c-1.24,8-.41,13.18,4.54,12.95,1.77-.08,5.8-2.5,8.6-1.7a48.67,48.67,0,0,0,16,2.21c8.64-.21,6.07-6.79,1.56-7.13-9-.69-14.1-9.8-14.1-9.8Z" transform="translate(-13.56 -55.16)"/><path class="cls-7" d="M150.61,104.45c-2.15-2.83-4.43-4-8.51-8.14,0,0-.5,1.3.3,4.57,4.72,19.16-37,67.18-37,67.18a90.24,90.24,0,0,0-3.22,23.08C102,204.29,111,230.38,111,236.23s-6.34,53-3.22,49.55c10.84-11.85,28.1-5.46,28.1-5.46s-4.43-26.49-4.65-40.52c-.05-3,.88-11.72.58-16.56-.34-5.69-3.71-40,3.32-66.48.11-.41,6.55-11.36,6.65-11.55,3.81-7.64,6.86-21.12,7.62-23.73C150.44,118,152.8,106.09,150.61,104.45Z" transform="translate(-13.56 -55.16)"/><path class="cls-5" d="M118.08,183.76c-2.35,13-2.06,42,1.46,47.89s2.35,5.86,1.17,6.62-3.81,6.38-3.51,15.8.29,17.07,2.93,16.81,9.38,1.52,9.08,2.55-8.2-.26-10.55.5,11.73.26,12,2-18.91.51-22.86,8.92c-2.78,5.9-2.93-7.14-1.76-10.7s-5.28-9.43-1.76-34.64c1-7.41-2.35-20.64-.29-28.79S118.08,183.76,118.08,183.76Z" transform="translate(-13.56 -55.16)"/><path class="cls-8" d="M181.17,155.19,161.86,157a1.83,1.83,0,0,0-1.05.44,1.14,1.14,0,0,0-.55,1.06v30.82c0,.61.34,1.11.76,1.11l2.71,0c.42,0,.09-.55.09-1.16v-.5l17.35-5.74a1.39,1.39,0,0,0,1-1.12l1.47-25.83C183.64,155.73,181.73,155.14,181.17,155.19Z" transform="translate(-13.56 -55.16)"/><path class="cls-9" d="M183.74,182.85a1.39,1.39,0,0,1-1,1.12l-18.18,6.46c-.71.26-1.29,0-1.29-.48V158.72c0-.53.58-1,1.29-1.08l18.18-1.85a.79.79,0,0,1,1,.7Z" transform="translate(-13.56 -55.16)"/><path class="cls-10" d="M183.58,182a1.21,1.21,0,0,1-.82,1l-16,5.64c-.62.23-1.13,0-1.13-.43V160.17c0-.47.51-.9,1.13-1l16-1.78a.67.67,0,0,1,.82.62Z" transform="translate(-13.56 -55.16)"/><path class="cls-11" d="M160.19,155.91c0,2,6.1.85,6.1.85s6.11-.6,7.48-.77c2-.25,4.59.34,4.48,4.54-.06,2.22,2.16.47,2.85-1.31a5.56,5.56,0,0,0-1.37-5.86c-1.64-1.71-2.35-2.21-7.62-4.08s-7.62-3-7.62-3-5.82,4.5-7.13,4.5S160.19,155.91,160.19,155.91Z" transform="translate(-13.56 -55.16)"/><path class="cls-12" d="M176.44,182.35c.12.41.33.71.47.68s.16-.39.05-.79-.32-.72-.47-.69S176.33,181.94,176.44,182.35Z" transform="translate(-13.56 -55.16)"/><path class="cls-12" d="M178.8,180.66c.46.11.87.11.91,0s-.31-.31-.77-.42-.87-.11-.91,0S178.33,180.54,178.8,180.66Z" transform="translate(-13.56 -55.16)"/><path class="cls-13" d="M177.39,179.18c.22.37.51.62.64.56s.05-.4-.17-.78-.51-.62-.64-.55S177.17,178.81,177.39,179.18Z" transform="translate(-13.56 -55.16)"/><path class="cls-13" d="M176.56,180.24c.22.37.51.62.65.57s0-.42-.18-.78-.51-.63-.64-.57S176.33,179.87,176.56,180.24Z" transform="translate(-13.56 -55.16)"/><path class="cls-12" d="M180.21,176.43c-.39.24-.65.53-.56.63s.47,0,.87-.25.64-.52.55-.62S180.6,176.19,180.21,176.43Z" transform="translate(-13.56 -55.16)"/><path class="cls-12" d="M177.34,173.63c0,.42.2.75.35.73s.22-.36.18-.77-.21-.75-.35-.74S177.29,173.21,177.34,173.63Z" transform="translate(-13.56 -55.16)"/><path class="cls-13" d="M183.35,177.28c-.32.31-.49.64-.37.73s.45-.12.77-.43.48-.64.36-.73S183.66,177,183.35,177.28Z" transform="translate(-13.56 -55.16)"/><path class="cls-13" d="M175,177.79c-.32.32-.49.65-.37.73s.45-.11.77-.42.48-.65.37-.73S175.31,177.47,175,177.79Z" transform="translate(-13.56 -55.16)"/><path class="cls-12" d="M172.27,177.15c0,.43.1.77.25.77s.27-.34.28-.75-.08-.76-.23-.76S172.29,176.74,172.27,177.15Z" transform="translate(-13.56 -55.16)"/><path class="cls-12" d="M175.06,176.08c.41.21.81.31.88.19s-.19-.37-.6-.59-.81-.3-.88-.2S174.65,175.86,175.06,176.08Z" transform="translate(-13.56 -55.16)"/><path class="cls-13" d="M175.89,171c.1.4.3.72.45.69s.17-.38.07-.79-.31-.72-.44-.69S175.78,170.6,175.89,171Z" transform="translate(-13.56 -55.16)"/><path class="cls-13" d="M173,175.15c.09.42.29.72.44.7s.17-.38.07-.79-.3-.72-.44-.7S172.93,174.74,173,175.15Z" transform="translate(-13.56 -55.16)"/><path class="cls-12" d="M184.15,174.53c.11.41.32.71.46.68s.16-.39,0-.79-.32-.71-.47-.68S184,174.13,184.15,174.53Z" transform="translate(-13.56 -55.16)"/><path class="cls-12" d="M186.72,174.68c.46.12.87.11.91,0s-.3-.31-.77-.43-.87-.11-.91,0S186.26,174.57,186.72,174.68Z" transform="translate(-13.56 -55.16)"/><path class="cls-13" d="M185.09,171.36c.22.37.51.62.65.57s0-.41-.18-.78-.51-.62-.64-.56S184.86,171,185.09,171.36Z" transform="translate(-13.56 -55.16)"/><path class="cls-13" d="M180.42,165.63c.23.37.51.62.65.56s.05-.41-.18-.78-.51-.62-.64-.56S180.2,165.26,180.42,165.63Z" transform="translate(-13.56 -55.16)"/><path class="cls-12" d="M176.09,168.5c-.39.24-.64.52-.56.62s.47,0,.86-.25.65-.52.57-.63S176.48,168.25,176.09,168.5Z" transform="translate(-13.56 -55.16)"/><path class="cls-12" d="M173.22,165.69c0,.42.2.75.35.74s.22-.37.18-.78-.2-.75-.35-.73S173.17,165.27,173.22,165.69Z" transform="translate(-13.56 -55.16)"/><path class="cls-13" d="M179.23,169.34c-.31.31-.48.64-.37.72s.46-.1.77-.42.48-.64.37-.72S179.54,169,179.23,169.34Z" transform="translate(-13.56 -55.16)"/><path class="cls-13" d="M170.88,169.86c-.32.31-.48.64-.37.72s.45-.1.77-.43.48-.64.37-.72S171.2,169.53,170.88,169.86Z" transform="translate(-13.56 -55.16)"/><path class="cls-12" d="M181.43,173c0,.41.09.75.24.76s.28-.33.29-.75-.09-.77-.23-.77S181.45,172.62,181.43,173Z" transform="translate(-13.56 -55.16)"/><path class="cls-12" d="M185.85,168.68c.41.22.81.31.89.2s-.2-.37-.61-.59-.81-.3-.88-.2S185.44,168.47,185.85,168.68Z" transform="translate(-13.56 -55.16)"/><path class="cls-13" d="M186.68,163.62c.1.41.3.72.45.7s.17-.39.07-.79-.3-.72-.44-.7S186.58,163.21,186.68,163.62Z" transform="translate(-13.56 -55.16)"/><path class="cls-13" d="M183.83,167.76c.09.41.29.72.44.7s.18-.39.08-.8-.31-.72-.45-.69S183.72,167.35,183.83,167.76Z" transform="translate(-13.56 -55.16)"/><path class="cls-14" d="M53.51,275.5c-2.61,7.63-2.47,12.17,2.41,12.61,1.72.16,3-1.29,5.19.43,6.38,5.1,11.75,4.51,13.88,4.76,8.47.95,12.52-5.12,7.34-7.7-5.71-2.86-12-11.27-12-11.27Z" transform="translate(-13.56 -55.16)"/><path class="cls-5" d="M141.81,100.81c-6.44-2-17.29-10.54-17.29-10.54-7.32,3.31-14,5.86-14,5.86s-9.14,5.19-16.16,44c-.74,4.08.88,3.82.88,3.82-6.67,4.4-17.65,25-14.42,32.95,4.62,11.33-12.11,45.35-12.61,48.91-10.08,12.67-22.72,50.52-18.46,55.79,12.87-6.84,25.94-2.42,25.94-2.42S75.57,261.71,92.09,238c4.46-6.41,39.66-74.55,47.68-102.92C143.63,121.43,143.69,101.39,141.81,100.81Z" transform="translate(-13.56 -55.16)"/><path class="cls-7" d="M122.47,180.36c-2.34,6.62-18.17,44.67-21.1,51.8s-3.52,7.64-7.62,12.23S78.5,270.54,78.5,272.07s-3.42,7-3.42,7-18.56-2.55-20.61-.25,2.93-7.14,13.19-7.14c-3.22-.76-8.3-1.52-9.67-1-1.89.71,7.52-3.14,11.91-3.14,6.75-8.66,14.37-21.74,16.42-25.3S93,235.73,98.83,224C101.39,218.88,122.47,180.36,122.47,180.36Z" transform="translate(-13.56 -55.16)"/><path class="cls-15" d="M155.89,151.58c2,.87,5.85,1,7.52,1.44s4.05,1.54,5.57,1.44,3.21-.26,1,1.62-6.45,1.49-6.45,1.49-1.33.71.76,3.26c1.83,2.24,5.46.9,5.86,4.16.14,1.16-6.69,6.13-14.44,3.11-2-.79-4.74-5.47-7-7.27-.84-.67-3.61-2.18-4.4-2.8-2.88-2.28,7.72-8.32,7.72-8.32Z" transform="translate(-13.56 -55.16)"/><path class="cls-7" d="M119.44,99.94c3.26,1.25,6,10.17,7.94,15.76s4.91,13.79,5.29,14.77,15.49,12.81,18.13,15.43,1.93,4.6,1.93,4.6-6.66,9.19-6.66,10.83c-3.77,2-25.87-13.62-28.89-16.25s-4.68-1.48-6.24-9.6c-.43-2.27-5.57-13.46-5.94-25.61S116.05,98.63,119.44,99.94Z" transform="translate(-13.56 -55.16)"/><path class="cls-7" d="M95.65,144.42c3.4,4.27,19.64,11.49,29.46,12.65,7.23.84,9.44,1.64,9.44,1.64l.62-2s-16.1-2.32-24-5.61S95.65,144.42,95.65,144.42Z" transform="translate(-13.56 -55.16)"/><path class="cls-5" d="M127.45,84.67l-6.3,8.4s16.19,14,24.36,11.63c2.68-.76,4.53-6.24,4.53-6.24a59.84,59.84,0,0,1-19.55-10.28A10.91,10.91,0,0,1,127.45,84.67Z" transform="translate(-13.56 -55.16)"/><path class="cls-16" d="M152.56,97c.12-.1,1.65-1.63,1.76-1.73,1.5-1.24,3.72.26,3.72-1.87a20.21,20.21,0,0,1,2.34-7.82,52.54,52.54,0,0,0,4.26-9.76l-2-1.08c-1.56-4.48-6.07-8.15-13.25-9.38-10.31-1.76-17.67,5.84-18.11,15.36-.44,9.06,7.7,17.37,13.24,18.77h-.06s1,.56,3.52,0a11.09,11.09,0,0,0,4.41-2.42Z" transform="translate(-13.56 -55.16)"/><path class="cls-15" d="M154.73,79.57c-1.41,1.31-2.32,6.94-8.85,8.75s-9.66,8.81-12.78,6.54-12.49-6.14-12.19-8.46c.16-1.2,2.64-10.5,5.42-11.84S154.73,79.57,154.73,79.57Z" transform="translate(-13.56 -55.16)"/><path class="cls-17" d="M173.27,80.58l-16,28.29s-12.87,5.41-22.48-7.82c-2.34-3.23,6.65-24.45,6.65-24.45Z" transform="translate(-13.56 -55.16)"/><path class="cls-11" d="M118,70.9c-2.25-.12-4.31.29-4.33,2.08s19.8,9.61,25.45,9.37,17.52-.87,22.4.28,11.83,2.87,13.13,1.11-.74-3.93-2.15-4.49S118,70.9,118,70.9Z" transform="translate(-13.56 -55.16)"/><path class="cls-5" d="M129.89,70.18s-8.77,1.84-14.24,1.11c-1.89-.26,5.73,5.9,21.62,9.26,5.87,1.24,14.51-.85,20.18-.06s15.58,4,16.73,1.88-4.11-4.68-7.87-6.45S129.89,70.18,129.89,70.18Z" transform="translate(-13.56 -55.16)"/><path class="cls-7" d="M167.42,79c1.83.54,2.06-8.42.77-10.72A19.67,19.67,0,0,0,155.74,59c-4.42-1-15.63-2.84-21,3.68s-5.88,10.76-5.88,10.76S158.86,76.47,167.42,79Z" transform="translate(-13.56 -55.16)"/><path class="cls-5" d="M134.9,62.79C129.56,69.31,129,73.54,129,73.54s8.81.89,18.24,2.1c.11-6.39,2.65-14.29,7.88-16.69C150.34,57.91,140,56.59,134.9,62.79Z" transform="translate(-13.56 -55.16)"/><path class="cls-2" d="M521.38,288.33a5.4,5.4,0,0,1-2.55,2.78c-.83.49-1.86,1.62-3.08,1.46a5.67,5.67,0,0,1-4.21,1.11c-1.58.17-3.33,1.5-5.25,1.24s-4,1.17-6.24,1.06a25.1,25.1,0,0,0-3.46.36c-1.19,0-2.42,1.72-3.69.68-1.27,1.35-2.57-.49-3.9.46a8.38,8.38,0,0,0-4.1.47c-1.4.28-2.84-.26-4.3-.05a5,5,0,0,1-4.48.65c-1.53.24-3.08.21-4.67.37s-3.18.35-4.83.62a30.12,30.12,0,0,0-8.41.53c-2.87.29-5.81.35-8.82.44s-6.07.23-9.18.37-6.3.28-9.53.25c-1.61.11-3.23.15-4.87.13s-3.29-.1-4.94-.25c-1.65.79-3.33-.09-5-.1a14,14,0,0,1-5.06.45c-1.7.16-3.39-.69-5.07,0a5.3,5.3,0,0,1-5,0c-1.65,1-3.3.07-4.94-.15-1.63.32-3.25-.1-4.87,0-1.61-1.08-3.21-.21-4.8-.05-1.59-.35-3.16,0-4.71-.19-1.57.05-3.12.36-4.64.35-1.54.67-3.06-.24-4.56-.69-1.5-.06-3,.37-4.46-.2-1.47.7-2.92.12-4.36-.23-1.44.76-2.86-.34-4.26-.24a15.76,15.76,0,0,0-4.15-.27,8.75,8.75,0,0,1-4-.13,16.51,16.51,0,0,1-3.92-.22c-1.29-.53-2.56-.08-3.81-.67-1.25.07-2.47-.37-3.67-.24a7,7,0,0,1-3.54.09,5.45,5.45,0,0,1-3.41-.65c-2.23-.38-5.95-.17-8-.32-2,.25-2.37-1.23-4.19-1.53s-3.91.54-5.51.22c-9.6-1.91-14.73-5.27-14.73-7.65,0-1.91,3.52-3.72,9.84-5.35q2.37-.6,5.25-1.19c1.92-1,4-.26,6.24-1.11a5,5,0,0,0,3.46-.74,12,12,0,0,1,3.69-.39c1.27.1,2.57-.47,3.9-.45a23.16,23.16,0,0,1,4.1-.4,41.55,41.55,0,0,0,4.3-.61c1.47.34,3-.45,4.48-.54a9.83,9.83,0,0,1,4.67-.23,9.2,9.2,0,0,1,4.83-.2c1.37-.17,2.75.38,4.16.22,1.39-.69,2.81-.3,4.25-.75,1.44-.21,2.89.15,4.36-.14,1.47.71,2.95-.3,4.46-.3,1.5-.22,3,.33,4.55-.05s3.07.27,4.64-.36a32.36,32.36,0,0,1,4.72-.31c1.59.07,3.18.07,4.8.1,1.62,1,3.24-.16,4.87-.34,1.64,0,3.29-.79,4.94-.38s3.33.07,5,.23a9.6,9.6,0,0,1,5.06.27c1.69.42,3.39,1.68,5.06.85,1.68-1.08,3.34-.07,5,.07a11.88,11.88,0,0,1,4.94-.34c1.64-.19,3.26.12,4.87-.4,1.62-.86,3.22,1.76,4.81.26,1.58.82,3.16.37,4.72.41,1.56,1.12,3.1-2.95,4.64.17,1.53,1.4,3-1.38,4.55-.26,1.5,2.18,3,.09,4.46.14,1.47-.26,2.93,1,4.36.42,1.44.15,2.86,1.12,4.26.32a4.26,4.26,0,0,1,4.15.06c1.64.21,3.25,0,4.83.21a7.1,7.1,0,0,1,4.67.7c1.53-.54,3,.16,4.48.61,1.47-1.18,2.9.16,4.3,0a3.2,3.2,0,0,1,4.11.45c1.33-.31,2.64.29,3.9.48a7.18,7.18,0,0,1,3.69.5c1.19-.86,2.35-.33,3.47.51,2.24.4,4.32.47,6.24,1a7.84,7.84,0,0,1,5.26,1.26c1.57.13,3-.56,4.2,1.06,1.22.41,2.25.27,3.09,1.5C520.51,286.74,521.38,287.35,521.38,288.33Z" transform="translate(-13.56 -55.16)"/><path class="cls-4" d="M329.82,280.59c0-2.6-3.69-6.81-3.69-6.81l7.09,6.8-1.72-7.2,4.25,6.4.28-4.4,2.83,3.4s1.7-4.81,2-3.81,1.7,4.2,1.7,4.2V274l2.27,4-2.54,3.6Z" transform="translate(-13.56 -55.16)"/><path class="cls-2" d="M308.61,280.79c0-2.61-3.68-6.81-3.68-6.81l7.08,6.8-1.71-7.2,4.25,6.4.28-4.41,2.83,3.41s1.69-4.81,2-3.82,1.7,4.21,1.7,4.21v-5.2l2.27,4-2.54,3.6Z" transform="translate(-13.56 -55.16)"/><path class="cls-3" d="M315.14,295.81c0-2.6-3.41-7.6-3.41-7.6l7.09,6.8-1.71-7.2,4.25,6.4.27-4.41,2.84,3.4s2.46-7.56,2.74-6.55.93,7,.93,7l3.53-3.89-.95,6.61-9.11.39Z" transform="translate(-13.56 -55.16)"/><path class="cls-4" d="M322.49,297.21c0-2.6-3.34-8.68-3.34-8.68l6.73,8.68-1.7-7.21,4.24,6.4.29-4.4,2.82,3.4s1.7-4.81,2-3.81,1.7,4.2,1.7,4.2v-5.2l2.27,4-2.54,3.6Z" transform="translate(-13.56 -55.16)"/><path class="cls-3" d="M366.79,281.82c0-2.61-3.41-7.6-3.41-7.6l7.08,6.79-1.71-7.2,4.25,6.4.28-4.41,2.84,3.41s2.46-7.56,2.74-6.56.93,7,.93,7l3.53-3.88-.95,6.61-9.11.38Z" transform="translate(-13.56 -55.16)"/><path class="cls-3" d="M389.44,300.55c0-2.3-2.94-7.64-2.94-7.64l5.92,7.63-1.5-6.34,3.74,5.64.24-3.87,2.5,3s1.48-4.23,1.73-3.35,1.5,3.7,1.5,3.7v-4.58l2,3.52-2.24,3.17Z" transform="translate(-13.56 -55.16)"/><path class="cls-3" d="M485.46,295.31c0-2.29,3-6.69,3-6.69l-6.22,6,1.49-6.34L480,293.91l-.25-3.88-2.49,3s-2.18-6.65-2.43-5.77-.8,6.13-.8,6.13L470.91,290l.84,5.8,8,.33Z" transform="translate(-13.56 -55.16)"/><path class="cls-4" d="M479,296.55c0-2.29,2.91-7.65,2.91-7.65l-5.9,7.65,1.49-6.34-3.72,5.64-.26-3.88L471,295s-1.5-4.22-1.74-3.35-1.5,3.71-1.5,3.71v-4.58l-2,3.52,2.24,3.18Z" transform="translate(-13.56 -55.16)"/><path class="cls-3" d="M459.91,298.94c0-2.59,3.37-7.58,3.37-7.58l-7,6.78,1.68-7.17-4.21,6.38-.29-4.38-2.81,3.39s-2.47-7.53-2.76-6.53-.91,6.93-.91,6.93l-3.52-3.86,1,6.58,9.08.36Z" transform="translate(-13.56 -55.16)"/><path class="cls-4" d="M452.6,300.34c0-2.59,3.29-8.65,3.29-8.65l-6.67,8.66,1.68-7.18-4.21,6.38-.29-4.38-2.81,3.39s-1.69-4.79-2-3.79-1.69,4.19-1.69,4.19v-5.18l-2.25,4,3.15,2.77Z" transform="translate(-13.56 -55.16)"/><polygon class="cls-12" points="417.07 231.56 413.38 229.67 413.57 209.89 417.2 210.66 417.07 231.56"/><polygon class="cls-8" points="424.48 230.52 417.07 231.56 417.07 210.55 424.89 210.55 424.48 230.52"/><polygon class="cls-12" points="397.43 225.65 394.46 224.47 394.46 207.59 398.25 207.5 397.43 225.65"/><polygon class="cls-12" points="404.26 225.04 397.29 225.6 397.11 207.62 404.26 207.65 404.26 225.04"/><polygon class="cls-12" points="432.11 224.91 428.96 223.98 428.96 206.8 432.11 206.41 432.11 224.91"/><polygon class="cls-12" points="438.08 224.35 432.01 224.82 432.01 206.32 438.08 206.32 438.08 224.35"/><polygon class="cls-12" points="450.74 228.63 446.85 226.9 446.6 209.35 450.74 209.43 450.74 228.63"/><polygon class="cls-8" points="458.04 227.85 450.62 228.53 450.62 209.32 458.04 209.32 458.04 227.85"/><polygon class="cls-18" points="459.87 215.92 418.46 217.23 391.29 214.71 391.29 177.44 418.46 174.81 459.87 176.13 459.87 215.92"/><polygon class="cls-19" points="458.57 194.98 418.46 194.98 418.46 176.56 458.57 177.88 458.57 194.98"/><polygon class="cls-19" points="458.41 214.28 418.3 215.59 418.3 197.17 458.41 197.17 458.41 214.28"/><path class="cls-20" d="M462.07,238.65c0,.94-2.64,2-6.11,2s-6.42-1.2-6.42-2.14Z" transform="translate(-13.56 -55.16)"/><polygon class="cls-21" points="435.61 182.46 448.82 182.68 448.82 183.97 435.61 183.69 435.61 182.46"/><path class="cls-20" d="M461.39,259.53c0,.93-2.72,2-6.19,2s-6.46-1.44-6.46-2.38Z" transform="translate(-13.56 -55.16)"/><polygon class="cls-21" points="434.9 203.16 448.06 203.43 448.12 204.67 434.96 204.41 434.9 203.16"/><polygon class="cls-22" points="465.01 175.08 450.49 187.87 418.21 188.59 391.48 192.55 391.29 176.16 420.7 173.46 465.01 175.08"/><polygon class="cls-19" points="387.09 178.68 418.46 175.54 466.41 177.24 466.28 171.23 418.98 168.77 387.02 173.15 387.09 178.68"/><polygon class="cls-18" points="417.64 168.95 417.64 174.89 387.09 178.68 387.02 173.15 417.64 168.95"/><polygon class="cls-12" points="362.15 232.33 358.85 230.65 359.01 212.93 362.26 213.63 362.15 232.33"/><polygon class="cls-8" points="368.79 231.4 362.15 232.33 362.15 213.53 369.16 213.53 368.79 231.4"/><polygon class="cls-12" points="344.57 225.28 341.91 223.69 341.91 209.12 345.31 209.03 344.57 225.28"/><polygon class="cls-8" points="350.69 224.74 344.44 225.24 344.29 209.14 350.69 209.17 350.69 224.74"/><polygon class="cls-12" points="379.68 224.39 376.86 223.24 376.86 208.17 379.68 207.82 379.68 224.39"/><polygon class="cls-8" points="385.02 223.88 379.59 224.3 379.59 207.75 385.02 207.75 385.02 223.88"/><polygon class="cls-12" points="392.3 229.72 388.81 228.17 388.58 212.46 392.3 212.51 392.3 229.72"/><polygon class="cls-8" points="398.84 229.02 392.19 229.62 392.19 212.43 398.84 212.43 398.84 229.02"/><polygon class="cls-18" points="402.24 216.9 364.05 218.11 338.98 215.78 338.98 181.41 364.05 178.98 402.24 180.2 402.24 216.9"/><polygon class="cls-19" points="401.04 197.59 364.05 197.59 364.05 180.6 401.04 181.81 401.04 197.59"/><polygon class="cls-19" points="400.89 215.38 363.9 216.59 363.9 199.61 400.89 199.61 400.89 215.38"/><path class="cls-20" d="M405.33,242.15c0,.86-2.45,1.84-5.65,1.84s-5.92-1.11-5.92-2Z" transform="translate(-13.56 -55.16)"/><polygon class="cls-21" points="379.86 186.04 392.04 186.24 392.04 187.43 379.86 187.18 379.86 186.04"/><path class="cls-20" d="M404.7,261.41c0,.86-2.52,1.85-5.71,1.85s-6-1.33-6-2.2Z" transform="translate(-13.56 -55.16)"/><polygon class="cls-21" points="379.2 205.13 391.34 205.37 391.4 206.53 379.26 206.28 379.2 205.13"/><polygon class="cls-23" points="406.97 179.23 393.58 191.02 363.81 191.69 339.16 195.34 338.98 180.23 366.11 177.73 406.97 179.23"/><polygon class="cls-19" points="335.11 182.55 364.05 179.65 408.27 181.22 408.15 175.68 364.52 173.41 335.05 177.46 335.11 182.55"/><polygon class="cls-18" points="363.29 173.58 363.29 179.06 335.11 182.55 335.05 177.46 363.29 173.58"/><path class="cls-24" d="M181,93.25c-1.26,1.35-1.64,2.91-1.14,4-.13.2-.26.4-.37.61-1.65,1-6.72,1.31-7.44,3.27a6.09,6.09,0,0,0-.84.71c-1,1.08,1.83,3.33,2.19,4.2-.34.25-2.05.38-2.35.69-1.6,1.7.42,4.34,1.76,5.22a2.53,2.53,0,0,0,1.45.39,2.53,2.53,0,0,1-.07.38c-2.07,1.89-.87,2.66.92,3.06a1.63,1.63,0,0,0,.72,1.17,3.33,3.33,0,0,0,3.53-.48c2.73.9-1.81,4.08,2.32,3.55-.18,1.65,1,2.12,4,2.31a1.92,1.92,0,0,0,.85,1.54c1.23.81,3.35.3,4.92-1.12.92,3.13.91,4.81,6.82,2.33-.18.65,2.45,1.35,2.94,1.55a3.54,3.54,0,0,0,1.07,2.36c1.17.76,2.31.3,4-.65.1.49-.37,1.54,1.89,1.85a36.52,36.52,0,0,0,4.35-.83c.3,2.9,12.18-5.19,11.24-5.83s.91-.89,1.6-3.77c.37-1.52-2-1.2-2.68-2a31.58,31.58,0,0,0,1.11-3.81c.34-1.75-1.83-1.78-2.5-1.72l.2-.18c1.62-1.69,1.87-3.79.56-4.68,0,0,0,0,0,0A9.55,9.55,0,0,0,220.7,106a3.74,3.74,0,0,1-1.52-3,2.31,2.31,0,0,0-.61-2.87,2.78,2.78,0,0,0-1.9-.37l-.16-.14c.68-1.36.58-2.71-.41-3.39s-2.63-.46-4.07.43a2,2,0,0,0-.14-.16l0,0c1.63-1.72,1.87-3.85.55-4.75-1-.68-2.61-.47-4,.4a2.93,2.93,0,0,0-.56-.28c-.21-.07-.44-.17-.68-.27a2.21,2.21,0,0,0-.74-2.56,3.52,3.52,0,0,0-3.53.13c-.82-.53-1.6-1.06-2.22-1.48-1.53-1-4.23.56-7,1.75a2.28,2.28,0,0,0-.54-.58c-1.34-.91-3.74-.25-5.36,1.48-.11.12-.2.24-.3.37a14.52,14.52,0,0,0-1.62.82C184.45,91.05,182.44,91.75,181,93.25Z" transform="translate(-13.56 -55.16)"/><path class="cls-25" d="M204.75,104c-2.87,1.87-4.38,4.44-4.05,6.48-.32.3-.65.6-1,.92-3.36,1.07-7.12,2.08-9.4,5.22a10.34,10.34,0,0,0-1.85.93c-2.3,1.49-3.81,4.15-3.61,5.81-.73.29-.19,1.64-.89,2.09-3.66,2.35-5.12,5.93-3.24,8a4.14,4.14,0,0,0,2.32,1.22c-.12.22-.23.46-.33.64-4.6,2.52-2.92,4.31,0,5.68a2.59,2.59,0,0,0,.63,2.29c1.23,1.37,3.84,1.51,6.39.53,4.29,2.57-5.28,6.39,2.2,7-1.17,2.81.66,4.08,5.7,5.53a3.19,3.19,0,0,0,.66,3c1.73,1.87,5.68,1.78,9.19-.11-.06,5.82-1,8.73,10.63,6.63-.66,1.08,3.58,3.29,4.33,3.81-.29,1.33-.21,3.54.62,4.51,1.63,1.78,3.85,1.41,7.25.37-.11.9-1.46,2.55,2.31,3.92,1.19.45,6.66.11,8,.21-1,5.17,24-4.43,22.64-5.9s2-1.21,4.76-5.95c1.45-2.52-2.89-2.85-3.66-4.43a59.51,59.51,0,0,0,3.95-6.21c1.52-2.92-2.27-3.79-3.47-4,.15-.06.28-.13.44-.21,3.71-2.33,5.27-5.89,3.43-7.93l-.05,0a15.91,15.91,0,0,0-1.47-2.85c-2-3.12-1.29-4.23-1.09-5.8,1.34-1.86,1.64-3.88.42-5.22a4.62,4.62,0,0,0-3.11-1.36,1.39,1.39,0,0,0-.23-.31c1.93-2.09,2.46-4.5,1.08-6.06s-4.33-1.8-7.32-.79c0-.11-.09-.23-.14-.34l.07,0c3.74-2.37,5.28-6,3.43-8-1.38-1.57-4.29-1.81-7.22-.84a6,6,0,0,0-.87-.69c-.32-.21-.67-.47-1-.73,1.05-1.73,1.17-3.51.06-4.76s-3.65-1.72-6.24-1.1c-1.14-1.22-2.2-2.41-3.07-3.4-2.14-2.39-7.66-.63-13.22.41a3.66,3.66,0,0,0-.62-1.23c-1.88-2.09-6.42-1.84-10.14.56a6.16,6.16,0,0,0-.71.52,24.52,24.52,0,0,0-3.26.84C211.87,101.47,208,101.93,204.75,104Z" transform="translate(-13.56 -55.16)"/><path class="cls-26" d="M202,87.75c-2,1.9-2.8,4.25-2.12,6-.21.28-.43.58-.63.88-2.62,1.29-5.57,2.56-6.87,5.48a8.09,8.09,0,0,0-1.36,1c-1.64,1.52-2.38,4-1.89,5.33-.55.34.17,1.42-.32,1.88-2.62,2.4-3.13,5.6-1.14,7.12a3.88,3.88,0,0,0,2.19.77c-.05.2-.09.41-.15.59-3.37,2.64-1.6,4,1.14,4.81a2.52,2.52,0,0,0,1,1.88c1.3,1,3.53.85,5.47-.27,4.12,1.71-3.16,6,3.25,5.72-.41,2.52,1.37,3.39,5.89,4.06a3,3,0,0,0,1.16,2.48c1.83,1.4,5.14.89,7.7-1.1,1.12,4.93.93,7.49,10.27,4.44-.35,1,3.66,2.38,4.4,2.75a5.67,5.67,0,0,0,1.42,3.76c1.72,1.33,3.51.76,6.16-.5.1.78-.72,2.32,2.73,3.07,1.09.26,5.62-.64,6.78-.71.19,4.49,19.26-6.43,17.86-7.52s1.47-1.25,2.82-5.58c.72-2.3-3-2.09-4-3.35a42.55,42.55,0,0,0,2.08-5.71c.69-2.65-2.66-3-3.7-3l.33-.23c2.65-2.4,3.25-5.59,1.3-7.12l-.05,0a15.41,15.41,0,0,0-1.81-2.26c-2.29-2.43-1.92-3.45-2.07-4.79.76-1.74.61-3.48-.68-4.48a4.29,4.29,0,0,0-2.89-.82A2.73,2.73,0,0,0,256,102c1.2-2,1.16-4.09-.3-5.26s-4-1-6.31.14a2.75,2.75,0,0,1-.19-.28l0,0c2.68-2.42,3.25-5.65,1.28-7.21-1.47-1.18-4-1.06-6.24.09a6,6,0,0,0-.87-.49c-.31-.14-.66-.32-1-.5a3.49,3.49,0,0,0-.9-4c-1.3-1-3.41-1-5.46-.23-1.2-.92-2.33-1.81-3.26-2.55-2.28-1.79-6.57.31-11,1.82a3.49,3.49,0,0,0-.76-1c-2-1.56-5.77-.85-8.42,1.6a4.79,4.79,0,0,0-.49.52,20.22,20.22,0,0,0-2.58,1.07C207.46,84.8,204.29,85.62,202,87.75Z" transform="translate(-13.56 -55.16)"/><path class="cls-27" d="M218.12,116.94c-2.66,1.65-4.1,4-3.86,5.84-.3.26-.61.53-.89.81-3.1.92-6.56,1.77-8.71,4.6a9.74,9.74,0,0,0-1.7.81c-2.14,1.31-3.58,3.72-3.45,5.23-.66.26-.21,1.5-.85,1.9-3.4,2.07-4.81,5.31-3.15,7.2a3.76,3.76,0,0,0,2.08,1.16c-.11.19-.21.41-.31.58-4.26,2.21-2.77,3.87-.12,5.17a2.4,2.4,0,0,0,.53,2.11c1.08,1.27,3.46,1.43,5.81.59,3.84,2.43-5,5.74,1.83,6.46-1.12,2.54.51,3.73,5.07,5.13a2.88,2.88,0,0,0,.53,2.76c1.53,1.75,5.15,1.74,8.38.08-.19,5.3-1.08,7.93,9.54,6.24-.63,1,3.19,3.06,3.86,3.55-.3,1.21-.28,3.23.46,4.13,1.44,1.65,3.47,1.35,6.59.47-.11.82-1.38,2.29,2,3.62,1.08.43,6.07.21,7.31.33-1,4.69,22-3.61,20.79-5s1.89-1.07,4.48-5.34c1.39-2.27-2.57-2.65-3.22-4.1a55.65,55.65,0,0,0,3.74-5.6c1.46-2.64-2-3.49-3.07-3.67l.4-.19c3.45-2.06,5-5.27,3.34-7.17l-.05,0a15.13,15.13,0,0,0-1.28-2.64c-1.75-2.88-1.08-3.88-.85-5.3,1.27-1.68,1.58-3.5.51-4.76a4.3,4.3,0,0,0-2.81-1.3,1.31,1.31,0,0,0-.2-.28c1.82-1.88,2.35-4.06,1.13-5.51s-3.9-1.72-6.65-.85l-.13-.31.07,0c3.47-2.09,5-5.35,3.32-7.29-1.22-1.44-3.87-1.72-6.57-.88a4.07,4.07,0,0,0-.77-.65c-.29-.2-.6-.44-.92-.68,1-1.57,1.14-3.19.16-4.34s-3.28-1.64-5.66-1.12c-1-1.13-1.95-2.25-2.72-3.16-1.89-2.22-7-.72-12.07.13a3,3,0,0,0-.54-1.13c-1.66-1.94-5.8-1.79-9.26.32-.23.14-.44.31-.66.47a25.5,25.5,0,0,0-3,.7C224.67,114.75,221.12,115.1,218.12,116.94Z" transform="translate(-13.56 -55.16)"/><path class="cls-28" d="M222,125.81c-1.35,1.61-1.79,3.44-1.24,4.66-.14.24-.28.47-.4.7-1.77,1.2-5.26,1-6,3.22a5.34,5.34,0,0,0-.88.84c-1.07,1.25-2.64,3.9-2.25,4.88-.36.29.18,1-.14,1.4-1.64,1.94-.48,4,.92,5,.43.28.55-.55,1.11-.56,0,.16,1.62,2.22,1.61,2.34-2.19,2.16-.92,3,1,3.49a1.83,1.83,0,0,0,.75,1.31c.94.68,2.47.42,3.77-.53,2.94,1.06-1.94,4.63,2.5,4.07-.2,1.89,1.09,2.45,4.31,2.69a2.28,2.28,0,0,0,.92,1.8c1.35,1,3.71.41,5.49-1.2,1,3.65,1,5.59,7.7,2.85-.2.75,2.83,1.64,3.4,1.89a4.16,4.16,0,0,0,1.22,2.8c1.33,1,2.67.45,4.65-.64.1.6,1.91,2.75,4.58,3.19.85.14,13.17-.82,12-1.63,4-1.85,6.08-4,3.59-6.13.51-1.9.91-7,.09-7.91a38.56,38.56,0,0,0,1.5-4.74c.48-2.18-2.29-2.19-3.14-2.11l.25-.22c2.1-2.12,2.47-4.75.82-5.84h0a10.44,10.44,0,0,0-1.56-1.68,4.42,4.42,0,0,1-1.86-3.7c.56-1.47.36-2.84-.72-3.55a3.42,3.42,0,0,0-2.37-.39l-.2-.16c.89-1.72.79-3.4-.44-4.21s-3.25-.45-5,.72l-.18-.2s0,0,0,0c2-2.21,2.38-4.86.76-5.91-1.21-.79-3.18-.44-4.92.72a2.93,2.93,0,0,0-.7-.31c-.25-.08-.52-.18-.8-.3a2.68,2.68,0,0,0-.85-3.11c-1.06-.69-2.7-.47-4.24.39-1-.6-1.86-1.19-2.6-1.67-1.79-1.16-4.94.94-8.2,2.54a2.28,2.28,0,0,0-.62-.66c-1.53-1-4.25-.07-6.08,2.07-.13.15-.23.3-.34.45a17,17,0,0,0-1.8,1C225.78,123.05,223.55,124,222,125.81Z" transform="translate(-13.56 -55.16)"/><path class="cls-29" d="M240.36,124.76a3.79,3.79,0,0,0-2.62,2.81c-.17.12-.36.23-.53.36-1.74.19-3.65.32-5.05,1.65a6.12,6.12,0,0,0-1,.28,3.71,3.71,0,0,0-2.33,2.53c-.38.07-.26.8-.63,1-2,.79-3.07,2.43-2.38,3.63a2,2,0,0,0,1,.85c-.07.09-.14.2-.21.28-2.47.79-1.84,1.85-.57,2.83a1.42,1.42,0,0,0,.06,1.21c.45.8,1.69,1.12,3,.89,1.8,1.72-3.19,2.65.34,3.74-.85,1.27-.11,2.1,2.18,3.31a1.65,1.65,0,0,0,0,1.57c.63,1.11,6.8,4.87,8.65,4.29-.6,2.89,9.86,4.25,10.18,4.82-2.34,5.18,9.09,1.51,9.81.61,4.31-.22,4.62-6.35,4.06-6.55a1.55,1.55,0,0,0,.23-.08c2-.78,3.13-2.39,2.46-3.59v0a7.58,7.58,0,0,0-.43-1.57,3.23,3.23,0,0,1,.07-3,2.13,2.13,0,0,0,.74-2.57,2.26,2.26,0,0,0-1.36-1,.67.67,0,0,0-.07-.17c1.14-.85,1.63-2,1.14-2.91s-1.91-1.34-3.45-1.13l0-.19h0c2-.8,3.15-2.45,2.48-3.66-.5-.93-1.88-1.33-3.39-1.14a2.3,2.3,0,0,0-.33-.44,3.94,3.94,0,0,1-.43-.47,2,2,0,0,0,.51-2.36,3.07,3.07,0,0,0-2.89-1.17l-1.12-2c-.78-1.41-3.61-1.08-6.4-1.13a1.35,1.35,0,0,0-.18-.67c-.67-1.23-2.88-1.55-4.92-.74l-.39.18a16.07,16.07,0,0,0-1.65.09C244.05,124.2,242.14,124.05,240.36,124.76Z" transform="translate(-13.56 -55.16)"/><path class="cls-29" d="M258.63,121.93a3.74,3.74,0,0,0-3.18,1.13l-.55.07a7,7,0,0,0-4.41-.55,5.44,5.44,0,0,0-.84-.15,3.72,3.72,0,0,0-2.84,1c-.31-.08-.56.48-.89.47-1.82-.12-3.33.69-3.39,1.81a1.41,1.41,0,0,0,.33,1l-.29.12c-2.14-.28-2.18.71-1.71,1.85a1.21,1.21,0,0,0-.5.89c0,.74.7,1.4,1.76,1.7.51,1.86-3.51.81-1.46,2.8-1.19.64-1,1.49.06,3.15a1.56,1.56,0,0,0-.72,1.14c-.05,1,2.68,5.87,4.29,6.1-1.76,1.87,5.17,6.48,5.14,7-4.06,2.93,5.87,4.24,6.81,3.83,3.21,1.33,6.24-3,5.93-3.33l.2,0c1.82.14,3.36-.65,3.42-1.75,0,0,0,0,0,0a6.16,6.16,0,0,0,.42-1.28,3,3,0,0,1,1.42-2.14c1-.28,1.67-.87,1.71-1.59a1.62,1.62,0,0,0-.52-1.19.71.71,0,0,0,0-.15c1.22-.22,2.1-.88,2.16-1.71s-.77-1.62-2-2l.07-.14h0c1.84.12,3.4-.69,3.47-1.79.06-.84-.74-1.62-1.92-2a1.51,1.51,0,0,0-.05-.42,3.56,3.56,0,0,1-.09-.49,1.94,1.94,0,0,0,1.46-1.53c0-.74-.6-1.43-1.55-1.85,0-.67.07-1.3.1-1.83.08-1.28-2.11-2-4.1-3a1.18,1.18,0,0,0,.17-.55c.09-1.12-1.36-2.12-3.21-2.24H263a8.75,8.75,0,0,0-1.23-.51C261.54,122.81,260.24,122,258.63,121.93Z" transform="translate(-13.56 -55.16)"/><polygon class="cls-12" points="185.15 245.03 179.5 242.39 179.79 214.54 185.34 215.65 185.15 245.03"/><polygon class="cls-8" points="196.46 243.56 185.15 245.03 185.15 215.47 197.09 215.47 196.46 243.56"/><polygon class="cls-12" points="147.04 233.44 142.39 231.94 142.5 208.05 148.3 207.92 147.04 233.44"/><polygon class="cls-8" points="157.47 232.58 146.82 233.38 146.56 208.08 157.47 208.13 157.47 232.58"/><polygon class="cls-12" points="211.56 230.96 206.75 229.16 206.75 205.48 211.56 204.94 211.56 230.96"/><polygon class="cls-12" points="220.66 230.17 211.41 230.83 211.41 204.81 220.66 204.81 220.66 230.17"/><polygon class="cls-12" points="236.58 240.91 230.62 238.48 230.23 213.8 236.58 213.9 236.58 240.91"/><polygon class="cls-8" points="247.72 239.82 236.39 240.78 236.39 213.75 247.72 213.75 247.72 239.82"/><polygon class="cls-18" points="250.25 220.86 187.41 222.69 138.33 219.84 138.33 131.67 187.41 127.32 249.81 130.96 250.25 220.86"/><polygon class="cls-19" points="248.29 188.84 187.41 188.84 187.41 163.09 248.29 164.93 248.29 188.84"/><polygon class="cls-19" points="248.05 215.2 187.17 217.03 187.17 191.29 248.05 191.29 248.05 215.2"/><path class="cls-20" d="M246.59,227.93c0,1.31-4,2.79-9.29,2.79s-9.73-1.67-9.73-3Z" transform="translate(-13.56 -55.16)"/><polygon class="cls-21" points="213.44 171.33 233.48 171.64 233.49 173.44 213.44 173.05 213.44 171.33"/><polygon class="cls-19" points="248.02 162.07 187.41 160.67 187.41 136.2 247.85 139.16 248.02 162.07"/><path class="cls-20" d="M246.17,200.66c0,1.32-4,2.73-9.25,2.63s-9.69-1.89-9.69-3.2Z" transform="translate(-13.56 -55.16)"/><polygon class="cls-21" points="213.1 143.66 233.06 144.36 233.07 146.18 213.1 145.4 213.1 143.66"/><path class="cls-20" d="M245.56,256.51c0,1.31-4.14,2.82-9.41,2.82s-9.8-2-9.8-3.34Z" transform="translate(-13.56 -55.16)"/><polygon class="cls-21" points="212.36 199.66 232.34 200.03 232.43 201.78 212.45 201.41 212.36 199.66"/><polygon class="cls-30" points="255.57 135.8 236.03 150.57 187.04 161.65 138.62 165.85 138.33 134.86 189.94 133.19 255.57 135.8"/><polygon class="cls-19" points="131.96 138.39 187.41 134.58 259.72 137.44 259.53 130.13 188.2 125.12 131.86 130.66 131.96 138.39"/><polygon class="cls-18" points="186.17 125.38 186.17 133.68 131.95 137.35 131.86 130.66 186.17 125.38"/><path class="cls-11" d="M272.16,122.43c-6.05,2-18.88-.33-22.23,1.73s-5.36,5.75-4.63,8.69c0,0,5.35,9.09,9,8.78,0,0,12.53-5.24,15.13-6.85a21.7,21.7,0,0,1,6.33-2.29Z" transform="translate(-13.56 -55.16)"/><path class="cls-5" d="M313.23,98.79c2.82,2.08,12.52,9.09-1,25.48,0,0-1.63,5.64-12,10.22-9.86,3.15-17.42.62-34.56,2.83,3.48-5.7,1.84-9.23-.19-14.24,11.52-3.12,17.48-.5,22.29-2.46,2.68-2.12,8.21-9.68,14.54-18.38C305.92,98.15,311.44,97.48,313.23,98.79Z" transform="translate(-13.56 -55.16)"/><path class="cls-6" d="M298.14,284.58c.13,8.53-2.12,13.6-7.3,12.81-1.83-.28-5.52-1.34-8.59-.81-9.57,1.67-12.66.79-14.92.5-9.05-1.18-12-10.22-5.1-9.36s19-8.62,19-8.62Z" transform="translate(-13.56 -55.16)"/><path class="cls-5" d="M342.31,97.81c13.32,5.66,13.6,8.37,13.6,8.37s-4.06,21.9-5.57,29c-3.4,16.09-13,15.43-9.91,21.18,5.39,9.94,2.17,25.11.56,41.85-.47,5-44.93-6.12-47.9-7.88,0,0,6.84-55.3,8.81-62.83S321,97.54,323,97.78C330,98.6,342.31,97.81,342.31,97.81Z" transform="translate(-13.56 -55.16)"/><path class="cls-7" d="M329.37,99.77c2.87-2.4-6.8-4.92-6.8-4.92-6,2.12-11.68,2.07-15.2,3.78-2.92.59-8.75,25.32-9.72,28.92-.73,2.7-11.7,15.73-6,21.3,3.14,3.09.14,9.77-.38,10.84-3.77,8-5,22.29-5.89,31.43-2.84,17.53-6.22,37.38-6.22,41.88,0,6.92-7,51.93-7,51.93s11.05-2.79,24.22,7.25c4,3,11.05-44.58,11.93-50.73s-6.69-58-6.69-58c-2.83-18.47,2.15-35,3.4-40.38C308.23,129.37,311.81,114.55,329.37,99.77Z" transform="translate(-13.56 -55.16)"/><path class="cls-5" d="M304.73,149.76c-8.31,21-15,78.15-15.3,81.74s.82,8.92,1.7,13.79-1.48,15.2-3.59,21.75c-1.32,4.1,3.57,12.63-5.29,13.62-13.22,1.48.76,3.62.76,3.62s14.1,5.33,13.36,7.9c2.5-1,6.33-10.77,6.93-17.17s9.12-47.39,9.42-55.84-2.35-29.2-2.65-31.26S304.73,149.76,304.73,149.76Z" transform="translate(-13.56 -55.16)"/><path class="cls-14" d="M361.76,286.58c1.64,8.3.28,11.56-4.9,11.48-1.84,0-2.6.08-5.1,1.64-7.44,4.65-12,3.78-14.27,3.8-9,.06-14.93-6.64-8.78-7.9,13.6-2.79,13-12.64,13-12.64Z" transform="translate(-13.56 -55.16)"/><path class="cls-5" d="M337.45,159.76c3.76,10.61,6.94,25,7.51,35.06.38,6.82,6.47,32.5,6.47,36.29,8.73,14.42,17.76,58.71,12.52,63.77-12.52-8.6-26.55-5.68-26.55-5.68s-9.37-40.51-12-48.1-23.4-60.32-24.27-63.35S337.45,159.76,337.45,159.76Z" transform="translate(-13.56 -55.16)"/><path class="cls-7" d="M305.29,184.31c.57,9.85,11.49,46.8,11.72,52.53s5.28,12.63,7.55,15.1,3.4,9.84,6.8,17.73,6,21.33,6,21.33,19.54-2.89,23.23,1.15c.57-6.4-.06-9.53-6.6-9.36s-7.19-1.31-7.19-1.31,12.45-1.14,10-1c-5.76.36-10.77-4.77-11.9-6.24-1.26-1.64-9.35-23.39-14.74-33.49C325.37,231.66,305.29,184.31,305.29,184.31Z" transform="translate(-13.56 -55.16)"/><path class="cls-9" d="M290.23,173.51c-.28.13-2.05,1.61-3.84.86l-44.84-19c-1.67-.71-3.14-1.81-2.45-3.36l11.52-26c.14-1,3.44-1,3.73-.83l44.56,17.73A3.28,3.28,0,0,1,301,147Z" transform="translate(-13.56 -55.16)"/><path class="cls-31" d="M298.77,143.06l-44.56-17.73a11.44,11.44,0,0,0-3.12.28,3.65,3.65,0,0,1,.85.21l44.56,17.74a3.27,3.27,0,0,1,2.08,4.1l-9.91,25.06a4.12,4.12,0,0,1-1.79,1.94,4,4,0,0,0,3.35-1l10.62-26.47A3.28,3.28,0,0,0,298.77,143.06Z" transform="translate(-13.56 -55.16)"/><path class="cls-10" d="M286.43,168.29a2.74,2.74,0,0,1-3.71,1.17L242.59,152.8c-1.45-.62-1.06-1.85-.51-3.09l8.61-19.61a2.71,2.71,0,0,1,3.55-1.13l38.55,15.44a2.74,2.74,0,0,1,1.84,3.36Z" transform="translate(-13.56 -55.16)"/><path class="cls-12" d="M279.23,163.59c0,.52-.15.94-.33.94s-.33-.42-.33-.94.15-1,.33-1S279.23,163.07,279.23,163.59Z" transform="translate(-13.56 -55.16)"/><path class="cls-12" d="M275.8,162.15c-.51.26-1,.36-1.1.22s.26-.46.78-.72,1-.36,1.11-.21S276.33,161.89,275.8,162.15Z" transform="translate(-13.56 -55.16)"/><path class="cls-13" d="M277,160c-.14.51-.4.89-.58.85s-.2-.48-.06-1,.41-.89.58-.85S277.15,159.5,277,160Z" transform="translate(-13.56 -55.16)"/><path class="cls-13" d="M278.37,161.07c-.14.51-.41.88-.58.85s-.21-.48-.06-1,.41-.89.58-.84S278.51,160.56,278.37,161.07Z" transform="translate(-13.56 -55.16)"/><path class="cls-12" d="M272.66,157.41c.55.19.95.46.88.62s-.57.11-1.12-.09-1-.46-.89-.61S272.1,157.22,272.66,157.41Z" transform="translate(-13.56 -55.16)"/><path class="cls-12" d="M275.16,153.29c.09.51,0,1-.17,1s-.39-.38-.48-.89,0-1,.17-1S275.08,152.77,275.16,153.29Z" transform="translate(-13.56 -55.16)"/><path class="cls-13" d="M269.15,159.24c.49.3.8.66.7.79s-.59,0-1.08-.31-.8-.66-.69-.78S268.66,158.94,269.15,159.24Z" transform="translate(-13.56 -55.16)"/><path class="cls-13" d="M279.42,157.71c.49.3.8.65.7.78s-.59,0-1.08-.31-.8-.65-.7-.78S278.93,157.41,279.42,157.71Z" transform="translate(-13.56 -55.16)"/><path class="cls-12" d="M282.49,156.24c.16.5.15.94,0,1s-.45-.33-.6-.83-.16-.94,0-1S282.33,155.73,282.49,156.24Z" transform="translate(-13.56 -55.16)"/><path class="cls-12" d="M278.75,155.66c-.42.36-.87.57-1,.46s.11-.5.53-.87.87-.58,1-.47S279.18,155.28,278.75,155.66Z" transform="translate(-13.56 -55.16)"/><path class="cls-13" d="M276,149.75c0,.52-.12.95-.3.95s-.34-.42-.37-.93.13-1,.31-1S276,149.23,276,149.75Z" transform="translate(-13.56 -55.16)"/><path class="cls-13" d="M280.89,154c0,.52-.12,1-.3,1s-.35-.42-.37-.94.13-.95.3-1S280.87,153.49,280.89,154Z" transform="translate(-13.56 -55.16)"/><path class="cls-12" d="M267.25,156.13c0,.52-.15.94-.33.94s-.34-.42-.34-.94.15-.94.34-.94S267.25,155.61,267.25,156.13Z" transform="translate(-13.56 -55.16)"/><path class="cls-12" d="M264.19,157c-.52.25-1,.35-1.11.21s.26-.45.78-.71,1-.37,1.11-.22S264.71,156.72,264.19,157Z" transform="translate(-13.56 -55.16)"/><path class="cls-13" d="M265,152.55c-.15.51-.4.89-.58.85s-.21-.48-.06-1,.4-.88.58-.84S265.16,152,265,152.55Z" transform="translate(-13.56 -55.16)"/><path class="cls-13" d="M268.69,144.41c-.14.51-.4.89-.58.85s-.2-.48-.06-1,.4-.88.58-.84S268.84,143.9,268.69,144.41Z" transform="translate(-13.56 -55.16)"/><path class="cls-12" d="M274.91,146.76c.56.18,1,.46.89.61s-.57.11-1.13-.08-1-.46-.89-.61S274.36,146.56,274.91,146.76Z" transform="translate(-13.56 -55.16)"/><path class="cls-12" d="M277.42,142.63c.08.51,0,1-.17,1s-.4-.38-.48-.89,0-1,.17-1S277.33,142.11,277.42,142.63Z" transform="translate(-13.56 -55.16)"/><path class="cls-13" d="M271.41,148.59c.48.3.8.65.69.78s-.59,0-1.08-.32-.8-.65-.69-.77S270.91,148.28,271.41,148.59Z" transform="translate(-13.56 -55.16)"/><path class="cls-13" d="M281.68,147c.48.31.79.66.69.79s-.59,0-1.08-.31-.8-.66-.7-.78S281.18,146.74,281.68,147Z" transform="translate(-13.56 -55.16)"/><path class="cls-12" d="M270,153.62c.16.5.15.94,0,1s-.45-.33-.61-.83-.15-.95,0-1S269.85,153.12,270,153.62Z" transform="translate(-13.56 -55.16)"/><path class="cls-12" d="M263.18,149.51c-.42.37-.87.58-1,.47s.11-.5.53-.87.87-.58,1-.47S263.6,149.14,263.18,149.51Z" transform="translate(-13.56 -55.16)"/><path class="cls-13" d="M260.45,143.6c0,.52-.12,1-.31,1s-.34-.42-.36-.94.12-.94.3-1S260.43,143.08,260.45,143.6Z" transform="translate(-13.56 -55.16)"/><path class="cls-13" d="M265.31,147.87c0,.52-.11.95-.3.95s-.34-.41-.36-.93.12-.95.3-1S265.3,147.34,265.31,147.87Z" transform="translate(-13.56 -55.16)"/><path class="cls-15" d="M266.91,129.07c-1,.62-4.73,1.1-8.3,2.67a86.88,86.88,0,0,1-8.92,3.08s-2.59-1.35.7-3.33c4.11-2.46,2.87-5.12,3.82-6.68s3.67,0,8-1S266.91,129.07,266.91,129.07Z" transform="translate(-13.56 -55.16)"/><path class="cls-15" d="M311.63,141.31c-2.28.42-7.39-1-9.19-.95s-4.41.41-5.91,0-3.49-1-1.83,1.36,6.28,2.56,6.28,2.56a12.52,12.52,0,0,1-4,5.11,13.16,13.16,0,0,1-5.49,2.46c-1.3.39,5.24,7,13.89,5.67,2.28-.35,6.12-3.24,8.86-4.55,1-.5,5.82-.53,6.8-1,3.55-1.65-3-12.31-3-12.31Z" transform="translate(-13.56 -55.16)"/><path class="cls-7" d="M355.54,104.21c3.68,1.25,9.82,6.23,1.5,25,0,0-4.53,8.21-7.17,12.47-8.7,6.17-17.53,13.33-33.14,13.47,1.24-6.82-1.06-9.93-3.58-14.78,9.44-3.2,20.29-9.52,23.12-10.51,1.51-.81,1.89-2.13,7.93-16.41C345.71,107.49,353.21,103.43,355.54,104.21Z" transform="translate(-13.56 -55.16)"/><path class="cls-16" d="M316.76,91.39c-.05-.14-.11-.29-.17-.44a24.85,24.85,0,0,1-1.41-6c-.32-2.23-.44-4.23-.49-5.39-.11-3.2,2-9.87,2.57-12.64l2.38-.18c3.89-3.47,10-5,17.31-3.14,10.44,2.64,13,12.65,8.25,21.59C340.63,93.71,328.6,98,322.75,97l.05,0s-1.19.11-3.25-1.45a9.38,9.38,0,0,1-2.72-4A1,1,0,0,0,316.76,91.39Z" transform="translate(-13.56 -55.16)"/><path class="cls-5" d="M346,87.55l-1,12.56s-21.33,4.6-27.56-.94c-2-1.81-2.66-7.85-2.66-7.85a83.86,83.86,0,0,0,24.84-1.79A51.38,51.38,0,0,0,346,87.55Z" transform="translate(-13.56 -55.16)"/><path class="cls-32" d="M327.2,72.69c.57,1.78-.56,6.57,2.08,9.52,4.35,4.87,3.68,13.22,7.79,12.43s12.75,6.23,13.74,4c.52-1.17,2.2-15.68.38-18.06S327.2,72.69,327.2,72.69Z" transform="translate(-13.56 -55.16)"/><path class="cls-17" d="M308.89,68l-7.08,36.33s24.52,4.87,31.35,3.29,11-30.54,11-30.54Z" transform="translate(-13.56 -55.16)"/><path class="cls-15" d="M359.14,82.47c2.05,1,3.86,2.81,2.73,4.38s-14.28,0-19-3S323.55,75,318.56,73.65s-10-3-10-5.13,3.18-3,4.77-2.85S359.14,82.47,359.14,82.47Z" transform="translate(-13.56 -55.16)"/><path class="cls-5" d="M354.05,78.18s6.12,4.73,7.14,6.2S351,85.87,345.54,83.2s-16.66-7.38-22.1-9.46-13.95-3.84-13.61-6.2,4.43-2.37,8.85-2.07S354.05,78.18,354.05,78.18Z" transform="translate(-13.56 -55.16)"/><path class="cls-7" d="M315.72,67.59c-1.93-.43,3.64-8.33,6.25-9.71a23.72,23.72,0,0,1,16.77-2c4.52,1.24,15.42,5.11,15.87,13.4s-1.82,12.21-1.82,12.21S324.8,69.56,315.72,67.59Z" transform="translate(-13.56 -55.16)"/><path class="cls-5" d="M354.44,69.32c.46,8.27-1.81,12.21-1.81,12.21s-8.24-3.52-17.22-7.06c4-5.6,6.9-13.72,3.89-18.35C344.15,57.56,354,61.44,354.44,69.32Z" transform="translate(-13.56 -55.16)"/></g></g></svg>